<svg xmlns="http://www.w3.org/2000/svg" width="62.0in" height="38.0in" viewBox="0 0 62.0 38.0">
<title>Evolution Mortgage tailgate flag 3x5 ft (navy)</title>
<defs>
  <radialGradient id="glow" cx="0.5" cy="0.40" r="0.68"><stop offset="0" stop-color="#163D72"/><stop offset="1" stop-color="#0B1F3F"/></radialGradient>
  <linearGradient id="brand" x1="0" y1="0" x2="1" y2="0"><stop offset="0" stop-color="#1456AA"/><stop offset="1" stop-color="#21A0DE"/></linearGradient>
  <linearGradient id="accent" x1="0" y1="0" x2="1" y2="0"><stop offset="0" stop-color="#21A0DE"/><stop offset="1" stop-color="#4FC3F0"/></linearGradient>
  <clipPath id="page"><rect x="-1.0" y="-1.0" width="62.0" height="38.0"/></clipPath>
</defs>
<g transform="translate(1.0,1.0)" clip-path="url(#page)">
<rect x="-1.0" y="-1.0" width="62.0" height="38.0" fill="url(#glow)"/>
<path d="M683.60,298.49C692.44,296.79 691.61,296.99 697.00,295.30C700.43,294.23 706.00,291.95 708.38,290.66C716.34,286.32 718.00,285.24 723.25,280.98C733.34,272.79 742.35,260.89 747.26,249.25C747.72,248.15 748.29,246.80 748.53,246.25C751.42,239.41 754.00,225.80 754.00,217.40C753.99,208.63 751.44,195.16 748.47,188.25C743.69,177.11 740.06,171.23 732.78,162.83C723.77,152.45 707.39,142.17 694.00,138.50C692.76,138.16 691.19,137.70 690.50,137.48C689.81,137.26 687.67,136.82 685.75,136.50C683.83,136.19 681.03,135.72 679.54,135.46C671.57,134.10 657.86,135.64 647.25,139.09C644.28,140.06 643.89,140.20 640.50,141.64C630.29,145.97 621.41,151.98 613.48,159.96C601.04,172.47 593.65,186.81 590.41,204.75C590.04,206.82 589.80,212.14 589.81,217.75C589.85,228.86 590.59,233.45 594.04,244.00C596.79,252.39 603.51,263.88 610.08,271.40C619.28,281.94 632.63,290.78 646.03,295.18C649.46,296.31 652.66,297.11 659.00,298.42C662.11,299.06 680.36,299.11 683.60,298.49Z M548.62,432.29L546.76,430.58L546.90,425.49C546.98,422.69 547.36,418.34 547.75,415.83C548.15,413.31 548.60,410.35 548.76,409.25C549.20,406.32 550.74,399.36 551.49,397.00C551.71,396.31 552.17,394.74 552.52,393.50C560.44,365.38 578.02,338.26 597.85,323.58C600.65,321.51 601.80,320.00 600.58,320.00C599.85,320.00 593.28,314.92 588.13,310.36C579.28,302.54 570.23,291.58 564.32,281.53C559.29,272.98 555.98,265.86 553.24,257.71C550.52,249.63 549.28,244.48 547.43,233.50C546.58,228.48 546.59,205.49 547.44,200.75C549.03,191.88 549.95,187.34 550.50,185.50C550.71,184.81 551.17,183.24 551.51,182.00C554.67,170.74 560.68,157.89 567.62,147.56C575.68,135.57 586.65,124.14 597.88,116.07C599.59,114.83 601.00,113.67 601.00,113.48C601.00,113.29 599.37,111.93 597.38,110.46C587.38,103.07 576.17,90.20 568.02,76.75C565.30,72.27 558.00,57.50 558.00,56.48C558.00,56.05 557.80,55.49 557.56,55.22C557.06,54.68 554.88,48.78 553.42,44.00C548.18,26.86 545.36,6.47 547.73,2.85C549.54,0.09 550.18,-0.00 568.30,0.00C584.00,0.00 585.04,0.06 586.63,0.99C588.80,2.28 590.00,4.85 590.00,8.23C590.00,9.71 590.24,12.12 590.53,13.59C590.82,15.05 591.28,17.38 591.55,18.75C593.75,29.91 599.07,42.45 606.06,53.00C615.87,67.80 627.57,78.40 641.77,85.35C647.95,88.38 651.50,89.59 659.00,91.27C662.83,92.13 675.36,92.26 679.79,91.48C690.26,89.66 694.05,88.47 702.50,84.38C719.68,76.07 734.47,60.72 743.91,41.38C749.08,30.81 751.88,21.20 753.55,8.25C754.65,-0.19 754.15,0.00 775.40,0.00L792.16,0.00L793.83,1.28C796.79,3.53 797.18,4.89 796.53,10.69C795.39,21.01 794.71,25.29 792.99,33.00C791.61,39.20 787.91,50.82 785.71,55.88C785.32,56.77 784.64,58.34 784.20,59.38C775.41,79.99 759.85,100.69 745.53,110.79C743.61,112.14 742.03,113.37 742.02,113.52C742.01,113.66 742.65,114.17 743.44,114.63C746.54,116.47 755.50,124.00 760.25,128.77C776.77,145.36 788.64,166.60 793.50,188.25C793.81,189.62 794.25,191.54 794.48,192.50C794.91,194.29 795.57,198.91 796.49,206.50C797.94,218.55 796.45,235.11 792.65,249.25C790.73,256.36 790.68,256.52 789.05,261.00C785.46,270.80 778.66,283.13 771.70,292.46C764.99,301.45 750.51,315.49 743.94,319.37C743.15,319.83 742.50,320.45 742.50,320.73C742.50,321.02 744.02,322.37 745.88,323.73C750.50,327.13 759.85,336.31 764.23,341.75C767.81,346.19 773.66,354.63 776.20,359.00C777.55,361.32 783.31,372.91 784.66,376.00C790.41,389.19 794.50,404.90 795.99,419.50C796.28,422.39 796.65,425.47 796.81,426.34C797.21,428.55 796.21,431.23 794.43,432.73L792.92,434.00L775.06,434.00L757.20,434.00L755.65,432.38C754.30,430.95 754.04,430.19 753.53,426.25C751.70,412.05 748.84,402.45 743.11,391.25C734.08,373.61 719.36,358.39 703.82,350.62C695.73,346.57 693.91,345.88 686.25,343.97C682.42,343.01 680.34,342.84 672.25,342.81C666.16,342.78 661.76,343.00 660.00,343.41C658.49,343.76 656.24,344.29 655.00,344.58C648.42,346.14 638.76,350.46 632.50,354.65C612.04,368.35 596.42,391.64 591.54,415.75C591.26,417.12 590.80,419.31 590.51,420.60C590.23,421.89 590.00,424.20 590.00,425.74C590.00,429.11 589.10,431.46 587.24,432.92C585.89,433.98 585.56,434.00 568.18,434.00L550.49,434.00L548.62,432.29Z" fill="#FFFFFF" fill-rule="evenodd" opacity="0.07" transform=" translate(-31.0860,-9.0000) scale(0.124424)"/>
<path d="M683.60,298.49C692.44,296.79 691.61,296.99 697.00,295.30C700.43,294.23 706.00,291.95 708.38,290.66C716.34,286.32 718.00,285.24 723.25,280.98C733.34,272.79 742.35,260.89 747.26,249.25C747.72,248.15 748.29,246.80 748.53,246.25C751.42,239.41 754.00,225.80 754.00,217.40C753.99,208.63 751.44,195.16 748.47,188.25C743.69,177.11 740.06,171.23 732.78,162.83C723.77,152.45 707.39,142.17 694.00,138.50C692.76,138.16 691.19,137.70 690.50,137.48C689.81,137.26 687.67,136.82 685.75,136.50C683.83,136.19 681.03,135.72 679.54,135.46C671.57,134.10 657.86,135.64 647.25,139.09C644.28,140.06 643.89,140.20 640.50,141.64C630.29,145.97 621.41,151.98 613.48,159.96C601.04,172.47 593.65,186.81 590.41,204.75C590.04,206.82 589.80,212.14 589.81,217.75C589.85,228.86 590.59,233.45 594.04,244.00C596.79,252.39 603.51,263.88 610.08,271.40C619.28,281.94 632.63,290.78 646.03,295.18C649.46,296.31 652.66,297.11 659.00,298.42C662.11,299.06 680.36,299.11 683.60,298.49Z M1546.00,639.44C1534.07,637.85 1527.01,635.02 1517.00,627.85C1505.84,619.84 1500.45,613.18 1497.11,603.25C1494.64,595.91 1495.16,595.07 1503.12,593.49C1505.93,592.93 1507.07,592.93 1509.88,593.48C1515.31,594.54 1517.32,595.74 1522.50,601.00C1530.10,608.72 1537.50,613.14 1546.75,615.49C1549.20,616.11 1563.80,616.17 1565.80,615.56C1566.60,615.32 1568.49,614.85 1570.00,614.50C1576.41,613.06 1582.65,609.14 1586.36,604.25C1590.21,599.15 1591.62,595.46 1593.50,585.60C1593.81,583.95 1594.00,566.55 1594.00,539.35C1593.99,493.98 1593.82,489.49 1591.78,481.75C1590.90,478.41 1590.78,478.11 1588.55,473.50C1583.15,462.35 1571.98,454.05 1559.00,451.55C1557.49,451.26 1555.06,450.79 1553.60,450.51C1545.79,449.01 1533.95,450.75 1525.42,454.65C1515.36,459.25 1506.38,468.01 1501.60,477.87C1499.42,482.37 1498.73,484.91 1497.76,491.88C1497.15,496.30 1497.15,497.70 1497.76,502.13C1498.61,508.23 1499.07,510.07 1500.93,514.78C1504.60,524.07 1513.29,533.59 1522.25,538.14C1528.52,541.32 1532.14,542.44 1539.65,543.53C1543.19,544.04 1545.13,544.05 1549.65,543.54C1561.77,542.18 1570.36,538.52 1577.58,531.63C1581.92,527.49 1583.66,527.90 1586.43,533.69C1588.34,537.67 1589.00,540.24 1589.00,543.61C1589.00,547.90 1587.46,551.94 1584.61,555.09C1581.85,558.14 1579.71,559.43 1572.25,562.55C1571.18,563.00 1565.37,564.75 1562.50,565.50C1557.38,566.83 1553.09,567.22 1544.00,567.16C1537.14,567.12 1533.29,566.88 1531.00,566.34C1524.54,564.81 1521.24,563.87 1520.78,563.44C1520.51,563.20 1519.98,563.00 1519.58,563.00C1518.07,563.00 1507.56,557.47 1503.29,554.43C1497.80,550.52 1490.69,543.48 1486.92,538.21C1484.13,534.32 1479.79,526.43 1478.54,523.00C1478.19,522.04 1477.72,520.80 1477.51,520.25C1477.29,519.70 1476.84,518.24 1476.50,517.00C1476.16,515.76 1475.71,514.19 1475.50,513.50C1473.81,508.00 1473.20,491.48 1474.46,485.25C1475.98,477.77 1477.64,472.66 1480.50,466.64C1488.68,449.42 1504.28,435.63 1522.25,429.73C1528.73,427.61 1538.44,426.00 1544.75,426.01C1549.92,426.02 1560.01,427.35 1566.75,428.91C1577.34,431.35 1589.42,438.07 1597.47,445.97C1603.03,451.44 1606.24,455.82 1609.53,462.45C1613.55,470.54 1614.27,472.77 1616.58,484.00C1617.58,488.87 1617.56,587.60 1616.55,593.00C1615.00,601.34 1613.52,605.89 1610.37,612.00C1602.83,626.57 1588.84,635.81 1570.25,638.48C1568.05,638.80 1564.87,639.27 1563.19,639.53C1559.55,640.09 1550.54,640.04 1546.00,639.44Z M1872.75,639.41C1861.79,638.02 1854.69,635.09 1843.91,627.50C1835.98,621.93 1829.96,615.26 1826.65,608.38C1825.19,605.37 1823.00,598.89 1823.00,597.61C1823.00,595.93 1824.51,595.00 1829.40,593.70C1832.76,592.81 1835.24,592.81 1838.71,593.72C1843.46,594.95 1845.11,596.02 1850.00,601.01C1855.34,606.45 1856.83,607.56 1864.62,611.91C1870.02,614.91 1875.08,616.00 1883.63,616.00C1895.34,616.00 1903.11,613.80 1909.45,608.69C1915.03,604.20 1918.10,598.65 1920.43,588.87C1921.23,585.54 1921.23,491.58 1920.44,487.28C1917.71,472.52 1910.60,462.14 1899.09,456.13C1891.50,452.16 1882.58,450.00 1873.82,450.00C1863.44,450.00 1851.65,453.99 1843.50,460.27C1831.47,469.53 1825.00,482.32 1825.00,496.84C1825.00,507.01 1827.15,514.16 1832.80,522.78C1835.51,526.92 1841.11,532.67 1845.04,535.34C1852.05,540.10 1857.93,542.24 1867.62,543.53C1876.45,544.70 1887.86,542.54 1895.96,538.16C1899.46,536.27 1904.02,532.90 1906.00,530.75C1908.75,527.77 1910.89,528.17 1913.20,532.12C1915.42,535.93 1916.18,538.92 1916.17,543.75C1916.16,547.38 1915.93,548.71 1915.01,550.64C1913.15,554.55 1909.93,557.70 1905.51,559.94C1901.68,561.87 1894.33,564.58 1891.25,565.18C1890.42,565.35 1888.27,565.80 1886.47,566.20C1879.34,567.75 1865.81,567.68 1857.50,566.05C1836.54,561.94 1817.77,547.41 1808.41,528.03C1805.32,521.64 1804.82,520.36 1803.58,515.75C1801.81,509.16 1801.00,503.28 1801.00,497.00C1801.00,489.37 1802.14,482.56 1804.86,474.00C1809.34,459.88 1821.66,444.42 1834.52,436.78C1844.17,431.04 1853.55,427.90 1865.31,426.47C1874.98,425.29 1889.48,427.04 1900.00,430.66C1913.19,435.19 1925.50,444.43 1932.77,455.25C1939.47,465.21 1942.69,474.16 1944.48,487.75C1945.20,493.21 1945.20,583.79 1944.48,589.25C1943.57,596.18 1942.49,600.84 1940.54,606.25C1939.64,608.75 1936.63,614.52 1934.81,617.24C1927.42,628.27 1913.61,636.19 1897.75,638.48C1895.55,638.80 1892.38,639.27 1890.71,639.53C1887.09,640.09 1877.64,640.03 1872.75,639.41Z M1167.50,568.53C1166.54,568.32 1164.17,567.86 1162.25,567.50C1153.77,565.94 1142.86,561.31 1134.75,555.83C1129.28,552.14 1119.27,542.25 1115.69,537.00C1112.46,532.26 1109.63,526.87 1107.67,521.75C1105.44,515.91 1105.19,514.99 1103.53,506.59C1103.24,505.12 1103.00,500.81 1103.00,497.00C1103.00,493.19 1103.24,488.88 1103.53,487.41C1105.69,476.50 1106.32,474.46 1110.01,466.75C1115.32,455.67 1123.60,445.91 1134.07,438.39C1137.18,436.17 1146.75,431.03 1150.75,429.45C1154.70,427.88 1157.70,427.07 1164.75,425.67C1169.76,424.67 1185.92,424.53 1190.00,425.45C1202.98,428.38 1207.18,429.91 1216.28,435.01C1232.26,443.99 1245.45,461.09 1250.41,479.25C1252.93,488.46 1253.53,496.79 1252.29,505.04C1250.38,517.73 1246.88,526.94 1240.39,536.36C1228.47,553.64 1210.76,564.56 1188.29,568.48C1184.95,569.07 1170.17,569.10 1167.50,568.53Z M900.74,566.90C900.58,566.49 900.54,544.24 900.64,517.45L900.82,468.75L902.08,464.49C906.39,449.89 916.03,438.25 929.33,431.56C938.06,427.17 950.08,425.08 958.29,426.52C971.83,428.88 979.72,432.69 988.10,440.90L991.95,444.68L995.99,440.82C1001.71,435.36 1008.01,431.50 1015.75,428.73C1018.75,427.66 1028.31,426.04 1031.79,426.02C1035.57,425.99 1044.78,427.51 1048.25,428.74C1050.76,429.62 1051.46,429.92 1054.75,431.51C1064.89,436.38 1073.18,444.58 1078.25,454.75C1080.49,459.24 1080.97,460.50 1082.22,465.25C1083.93,471.73 1084.08,476.68 1083.91,522.25L1083.75,567.25L1079.31,567.14C1073.45,567.00 1070.78,566.19 1066.61,563.30C1064.17,561.60 1061.46,557.73 1060.59,554.69C1060.16,553.19 1060.00,542.07 1060.00,513.39C1060.00,491.81 1059.80,473.50 1059.56,472.70C1059.32,471.90 1058.82,470.24 1058.46,469.00C1056.61,462.72 1050.35,455.54 1044.31,452.77C1035.84,448.90 1027.71,449.06 1019.16,453.26C1013.09,456.24 1007.36,462.87 1005.55,469.00C1005.18,470.24 1004.68,471.90 1004.44,472.70C1004.20,473.50 1004.00,495.19 1004.00,520.90L1004.00,567.65L999.25,567.31C996.64,567.13 993.88,566.73 993.13,566.43C987.59,564.20 984.64,562.02 982.71,558.72C979.99,554.09 980.01,554.40 980.01,512.21C980.00,473.91 979.98,473.10 978.95,469.97C977.20,464.65 975.54,461.92 971.81,458.25C962.93,449.52 950.71,447.53 939.75,453.04C933.57,456.14 927.92,462.48 925.74,468.75C924.10,473.47 924.00,476.19 924.00,514.86C924.00,552.29 923.97,553.54 923.00,556.15C920.50,562.82 914.52,566.61 905.39,567.31C901.78,567.58 900.97,567.51 900.74,566.90Z M1272.00,518.76C1272.00,485.48 1272.17,469.21 1272.54,467.81C1273.77,463.09 1275.32,458.57 1276.66,455.75C1283.43,441.57 1297.45,430.38 1312.00,427.55C1313.51,427.26 1315.94,426.79 1317.40,426.51C1322.26,425.58 1327.34,425.88 1335.25,427.57C1341.51,428.91 1349.24,432.48 1354.59,436.51C1359.43,440.16 1364.50,445.78 1364.50,447.49C1364.50,449.09 1360.76,452.89 1357.97,454.12C1353.65,456.03 1352.59,456.25 1347.75,456.24C1342.90,456.23 1342.62,456.16 1338.25,454.07C1330.85,450.52 1328.97,450.00 1323.55,450.00C1313.26,450.00 1303.60,455.82 1298.68,465.00C1295.67,470.62 1295.83,468.24 1295.52,513.50C1295.19,560.37 1295.50,556.85 1291.38,561.33C1287.81,565.19 1283.87,566.80 1276.62,567.32L1272.00,567.65L1272.00,518.76Z M1425.00,567.19C1422.24,566.95 1415.88,565.50 1413.25,564.51C1409.56,563.14 1402.89,559.48 1399.62,557.05C1391.27,550.85 1384.55,541.54 1381.49,531.97C1378.92,523.91 1379.00,526.58 1379.00,454.64L1379.00,387.52L1380.20,386.74C1381.23,386.06 1381.88,386.04 1384.82,386.54C1394.18,388.13 1400.76,394.55 1402.46,403.77C1402.76,405.37 1403.00,410.76 1403.00,415.74C1403.00,422.12 1403.18,424.98 1403.60,425.40C1404.05,425.85 1409.11,426.00 1423.27,426.00C1445.22,426.00 1444.01,425.74 1443.99,430.54C1443.97,438.39 1437.80,446.24 1429.52,448.96C1426.69,449.88 1425.14,450.00 1415.49,450.00C1405.63,450.00 1404.58,450.08 1403.83,450.91C1403.07,451.75 1403.00,454.94 1403.00,486.50C1403.00,510.93 1403.17,521.71 1403.57,522.96C1407.08,534.07 1415.59,541.48 1427.14,543.52C1431.41,544.27 1437.22,543.47 1442.14,541.44C1447.38,539.28 1450.90,538.74 1454.63,539.51C1459.31,540.49 1462.88,542.31 1466.10,545.39C1470.02,549.13 1469.99,549.96 1465.76,553.92C1459.04,560.21 1451.72,564.04 1442.23,566.24C1438.83,567.02 1429.13,567.56 1425.00,567.19Z M1702.25,567.20C1694.24,566.59 1683.45,563.35 1676.00,559.32C1658.41,549.82 1645.83,533.98 1640.59,514.75C1636.09,498.23 1638.08,480.66 1646.31,464.32C1659.19,438.77 1688.81,423.04 1717.50,426.51C1723.34,427.22 1727.74,427.98 1731.00,428.85C1732.51,429.26 1734.42,429.76 1735.25,429.98C1738.77,430.90 1744.87,433.65 1750.75,436.98C1757.27,440.67 1766.15,449.13 1770.52,455.83C1775.28,463.11 1779.11,472.54 1780.47,480.25C1780.81,482.18 1781.30,484.69 1781.55,485.85C1781.80,487.01 1782.00,505.50 1782.00,527.20L1782.00,566.46L1780.94,567.03C1779.78,567.65 1775.29,567.32 1772.75,566.43C1767.28,564.50 1762.46,560.20 1760.12,555.14L1758.77,552.25L1758.45,520.00C1758.14,489.23 1758.08,487.57 1757.06,483.75C1754.51,474.20 1751.11,468.11 1745.17,462.46C1739.60,457.15 1731.85,453.19 1724.00,451.62C1722.49,451.31 1720.05,450.83 1718.59,450.53C1712.32,449.28 1701.38,450.08 1694.62,452.29C1675.58,458.50 1662.00,477.12 1662.00,497.00C1662.00,503.51 1664.14,512.02 1667.39,518.42C1672.73,528.96 1683.85,538.24 1695.00,541.46C1696.24,541.82 1697.81,542.30 1698.50,542.52C1699.19,542.74 1701.93,543.20 1704.59,543.55C1708.45,544.04 1710.49,544.04 1714.59,543.55C1727.13,542.05 1735.01,538.61 1742.69,531.30C1744.31,529.76 1746.07,528.50 1746.59,528.50C1748.94,528.50 1752.35,534.46 1753.46,540.50C1754.48,546.06 1752.57,552.01 1748.47,556.00C1744.76,559.62 1735.73,563.63 1727.25,565.44C1725.88,565.73 1723.74,566.19 1722.50,566.46C1720.03,567.00 1706.22,567.50 1702.25,567.20Z M2028.50,567.01C2023.29,566.44 2017.50,565.22 2013.25,563.79C2002.68,560.24 1992.38,553.86 1984.49,546.00C1973.47,535.00 1967.31,523.04 1964.52,507.25C1963.83,503.35 1964.08,488.49 1964.90,484.25C1967.61,470.33 1974.02,458.44 1984.47,447.94C1992.21,440.17 1999.98,435.06 2010.00,431.13C2020.25,427.11 2034.69,425.16 2044.15,426.51C2053.39,427.83 2054.37,428.04 2060.50,430.03C2067.48,432.29 2074.93,436.07 2081.11,440.50C2085.92,443.94 2094.92,453.21 2098.10,458.00C2105.18,468.67 2109.04,479.80 2109.13,489.75C2109.16,494.04 2109.00,495.11 2107.98,497.25C2106.41,500.55 2102.43,504.48 2098.93,506.19C2093.11,509.03 2094.53,508.96 2039.84,508.98L1989.42,509.00L1989.77,510.62C1990.27,512.93 1993.11,518.73 1995.48,522.25C1999.66,528.48 2008.17,535.72 2015.00,538.85C2023.51,542.75 2033.90,544.57 2041.65,543.51C2046.18,542.89 2052.79,541.39 2054.75,540.55C2061.83,537.49 2064.93,535.61 2072.50,529.75C2076.22,526.88 2079.50,525.86 2085.25,525.81C2091.14,525.75 2094.45,526.76 2098.89,529.98L2101.02,531.52L2098.93,534.64C2088.61,549.98 2071.65,561.67 2054.25,565.43C2052.88,565.73 2050.72,566.20 2049.47,566.47C2046.29,567.16 2033.02,567.51 2028.50,567.01Z M1187.25,544.42C1206.05,541.08 1222.63,526.09 1227.24,508.25C1229.61,499.12 1229.37,493.27 1226.19,482.00C1226.00,481.31 1224.88,478.89 1223.71,476.61C1217.39,464.36 1207.09,455.45 1194.25,451.12C1190.07,449.72 1187.47,449.15 1182.10,448.48C1171.60,447.18 1157.97,450.85 1148.02,457.67C1142.01,461.78 1134.03,471.17 1131.16,477.50C1128.07,484.29 1127.00,489.32 1127.00,497.00C1127.00,505.12 1128.21,510.41 1131.64,517.25C1137.61,529.19 1150.31,539.82 1162.50,543.09C1163.46,543.35 1165.04,543.78 1166.00,544.06C1170.56,545.37 1180.93,545.55 1187.25,544.42Z M2084.00,484.06C2084.00,483.16 2083.30,481.22 2081.61,477.50C2079.05,471.84 2073.07,464.54 2067.50,460.28C2062.18,456.22 2054.97,452.77 2049.25,451.55C2047.60,451.20 2045.31,450.71 2044.15,450.46C2039.47,449.43 2030.48,449.95 2024.25,451.61C2013.24,454.54 2004.19,460.35 1997.48,468.77C1994.83,472.11 1990.00,481.00 1990.00,482.55C1990.00,483.04 1989.77,483.58 1989.49,483.76C1989.21,483.93 1989.11,484.28 1989.27,484.53C1989.45,484.82 2008.18,485.00 2036.78,485.00C2082.64,485.00 2084.00,484.97 2084.00,484.06Z M548.62,432.29L546.76,430.58L546.90,425.49C546.98,422.69 547.36,418.34 547.75,415.83C548.15,413.31 548.60,410.35 548.76,409.25C549.20,406.32 550.74,399.36 551.49,397.00C551.71,396.31 552.17,394.74 552.52,393.50C560.44,365.38 578.02,338.26 597.85,323.58C600.65,321.51 601.80,320.00 600.58,320.00C599.85,320.00 593.28,314.92 588.13,310.36C579.28,302.54 570.23,291.58 564.32,281.53C559.29,272.98 555.98,265.86 553.24,257.71C550.52,249.63 549.28,244.48 547.43,233.50C546.58,228.48 546.59,205.49 547.44,200.75C549.03,191.88 549.95,187.34 550.50,185.50C550.71,184.81 551.17,183.24 551.51,182.00C554.67,170.74 560.68,157.89 567.62,147.56C575.68,135.57 586.65,124.14 597.88,116.07C599.59,114.83 601.00,113.67 601.00,113.48C601.00,113.29 599.37,111.93 597.38,110.46C587.38,103.07 576.17,90.20 568.02,76.75C565.30,72.27 558.00,57.50 558.00,56.48C558.00,56.05 557.80,55.49 557.56,55.22C557.06,54.68 554.88,48.78 553.42,44.00C548.18,26.86 545.36,6.47 547.73,2.85C549.54,0.09 550.18,-0.00 568.30,0.00C584.00,0.00 585.04,0.06 586.63,0.99C588.80,2.28 590.00,4.85 590.00,8.23C590.00,9.71 590.24,12.12 590.53,13.59C590.82,15.05 591.28,17.38 591.55,18.75C593.75,29.91 599.07,42.45 606.06,53.00C615.87,67.80 627.57,78.40 641.77,85.35C647.95,88.38 651.50,89.59 659.00,91.27C662.83,92.13 675.36,92.26 679.79,91.48C690.26,89.66 694.05,88.47 702.50,84.38C719.68,76.07 734.47,60.72 743.91,41.38C749.08,30.81 751.88,21.20 753.55,8.25C754.65,-0.19 754.15,0.00 775.40,0.00L792.16,0.00L793.83,1.28C796.79,3.53 797.18,4.89 796.53,10.69C795.39,21.01 794.71,25.29 792.99,33.00C791.61,39.20 787.91,50.82 785.71,55.88C785.32,56.77 784.64,58.34 784.20,59.38C775.41,79.99 759.85,100.69 745.53,110.79C743.61,112.14 742.03,113.37 742.02,113.52C742.01,113.66 742.65,114.17 743.44,114.63C746.54,116.47 755.50,124.00 760.25,128.77C776.77,145.36 788.64,166.60 793.50,188.25C793.81,189.62 794.25,191.54 794.48,192.50C794.91,194.29 795.57,198.91 796.49,206.50C797.94,218.55 796.45,235.11 792.65,249.25C790.73,256.36 790.68,256.52 789.05,261.00C785.46,270.80 778.66,283.13 771.70,292.46C764.99,301.45 750.51,315.49 743.94,319.37C743.15,319.83 742.50,320.45 742.50,320.73C742.50,321.02 744.02,322.37 745.88,323.73C750.50,327.13 759.85,336.31 764.23,341.75C767.81,346.19 773.66,354.63 776.20,359.00C777.55,361.32 783.31,372.91 784.66,376.00C790.41,389.19 794.50,404.90 795.99,419.50C796.28,422.39 796.65,425.47 796.81,426.34C797.21,428.55 796.21,431.23 794.43,432.73L792.92,434.00L775.06,434.00L757.20,434.00L755.65,432.38C754.30,430.95 754.04,430.19 753.53,426.25C751.70,412.05 748.84,402.45 743.11,391.25C734.08,373.61 719.36,358.39 703.82,350.62C695.73,346.57 693.91,345.88 686.25,343.97C682.42,343.01 680.34,342.84 672.25,342.81C666.16,342.78 661.76,343.00 660.00,343.41C658.49,343.76 656.24,344.29 655.00,344.58C648.42,346.14 638.76,350.46 632.50,354.65C612.04,368.35 596.42,391.64 591.54,415.75C591.26,417.12 590.80,419.31 590.51,420.60C590.23,421.89 590.00,424.20 590.00,425.74C590.00,429.11 589.10,431.46 587.24,432.92C585.89,433.98 585.56,434.00 568.18,434.00L550.49,434.00L548.62,432.29Z M1660.00,370.01C1650.66,369.33 1642.75,367.96 1634.00,365.50C1631.94,364.92 1629.58,364.25 1628.75,364.02C1622.31,362.21 1610.32,356.94 1602.25,352.37C1578.71,339.03 1559.16,318.44 1547.51,294.71C1545.49,290.61 1543.65,286.74 1543.42,286.12C1543.19,285.51 1542.78,284.49 1542.52,283.88C1541.91,282.43 1539.50,275.20 1538.98,273.25C1538.77,272.43 1538.25,270.51 1537.85,269.00C1534.61,256.95 1533.11,238.39 1534.50,227.65C1536.62,211.34 1538.43,203.76 1542.97,192.25C1555.76,159.82 1583.38,131.49 1615.50,117.86C1616.46,117.45 1618.32,116.64 1619.62,116.06C1620.92,115.48 1622.19,115.00 1622.43,115.00C1622.67,115.00 1623.97,114.58 1625.31,114.06C1639.46,108.60 1662.12,105.31 1677.60,106.47C1687.17,107.19 1693.57,108.06 1700.50,109.57C1708.01,111.21 1719.00,114.68 1724.84,117.26C1736.26,122.30 1749.27,130.10 1757.76,136.98C1768.24,145.49 1779.12,157.43 1786.38,168.43C1789.99,173.89 1796.18,185.46 1798.18,190.50C1798.67,191.74 1799.27,193.20 1799.51,193.75C1800.08,195.06 1802.69,203.14 1803.47,206.00C1805.40,213.08 1806.15,217.28 1807.49,228.50C1808.58,237.59 1807.69,252.69 1805.48,262.75C1804.46,267.40 1803.36,271.88 1802.77,273.75C1802.43,274.85 1801.85,276.76 1801.48,278.00C1801.12,279.24 1800.68,280.48 1800.51,280.75C1800.35,281.02 1799.90,282.15 1799.53,283.25C1797.81,288.35 1793.26,297.57 1788.79,305.00C1781.94,316.39 1768.73,331.28 1757.76,339.97C1753.77,343.13 1745.49,348.84 1741.41,351.25C1737.34,353.65 1726.75,358.80 1722.50,360.45C1720.16,361.35 1717.80,362.28 1717.25,362.51C1716.70,362.75 1715.46,363.17 1714.50,363.46C1713.54,363.75 1711.74,364.31 1710.50,364.69C1708.47,365.33 1704.87,366.23 1699.25,367.50C1698.15,367.75 1695.79,368.18 1694.00,368.46C1692.21,368.75 1689.40,369.20 1687.75,369.47C1683.62,370.14 1666.39,370.48 1660.00,370.01Z M123.25,366.99C119.95,366.76 115.90,366.34 114.25,366.05C112.60,365.77 109.90,365.31 108.25,365.02C91.75,362.21 73.72,354.87 58.58,344.80C50.14,339.18 44.91,334.92 38.00,328.00C31.29,321.30 26.94,315.99 21.61,308.00C18.16,302.84 11.54,290.63 10.09,286.75C9.78,285.93 9.06,284.01 8.48,282.50C7.25,279.31 6.60,277.40 5.96,275.12C5.71,274.23 5.26,272.66 4.97,271.62C3.83,267.63 2.43,260.78 1.46,254.50C0.61,248.98 0.60,228.69 1.44,223.00C4.57,201.77 11.10,184.61 22.42,167.91C36.75,146.78 55.42,131.38 80.14,120.30C81.73,119.58 83.25,119.00 83.52,119.00C83.79,119.00 84.40,118.80 84.88,118.56C86.50,117.74 88.24,117.07 91.50,116.02C96.25,114.50 97.45,114.16 100.50,113.49C102.01,113.16 103.77,112.69 104.40,112.44C105.03,112.20 106.10,112.00 106.77,112.00C107.44,112.00 108.95,111.78 110.12,111.52C123.08,108.59 142.63,108.61 158.50,111.57C166.34,113.03 176.72,115.79 180.75,117.49C181.30,117.72 182.76,118.28 184.00,118.74C191.91,121.69 202.04,127.00 210.29,132.52C235.96,149.70 254.76,174.91 262.49,202.50C262.83,203.74 263.29,205.31 263.50,206.00C264.40,208.97 265.50,215.17 266.47,222.75C266.97,226.60 266.40,232.62 265.26,235.75C260.93,247.57 250.94,255.90 237.00,259.29C234.75,259.84 217.21,259.97 140.86,259.98C59.95,260.00 47.43,260.10 47.19,260.72C46.95,261.35 48.24,265.84 49.50,268.75C54.22,279.65 59.61,287.96 66.93,295.60C77.97,307.11 90.59,315.07 104.91,319.53C111.98,321.73 112.42,321.85 116.25,322.50C118.17,322.83 120.83,323.30 122.15,323.55C125.94,324.26 141.76,324.09 147.15,323.28C151.77,322.58 157.35,321.39 160.00,320.52C160.69,320.30 162.26,319.83 163.50,319.47C164.74,319.12 165.96,318.64 166.22,318.41C166.49,318.19 166.99,318.00 167.34,318.00C167.69,318.00 169.50,317.32 171.36,316.49C180.70,312.32 187.72,308.01 194.77,302.11C200.61,297.21 204.30,294.96 209.25,293.25C218.07,290.21 227.37,290.21 236.25,293.24C241.94,295.19 250.41,300.42 250.47,302.03C250.50,302.89 246.53,308.88 241.53,315.50C236.82,321.75 223.75,334.57 216.88,339.70C208.23,346.14 196.74,352.77 187.75,356.48C187.20,356.71 185.96,357.24 185.00,357.66C183.44,358.34 174.75,361.26 170.75,362.44C167.35,363.45 161.22,364.80 157.00,365.46C155.21,365.75 152.40,366.20 150.75,366.46C146.42,367.16 130.25,367.47 123.25,366.99Z M396.50,367.20C383.91,365.81 372.66,359.29 364.65,348.75C363.17,346.81 359.99,340.85 358.24,336.75C357.33,334.62 355.71,331.09 352.83,324.94C351.85,322.84 350.36,319.63 349.52,317.81C348.69,315.99 347.31,313.01 346.48,311.19C345.64,309.37 344.20,306.27 343.28,304.31C342.36,302.35 341.03,299.46 340.31,297.88C339.60,296.30 338.22,293.31 337.26,291.25C336.29,289.19 334.71,285.81 333.74,283.75C332.78,281.69 331.40,278.70 330.69,277.12C329.97,275.54 328.64,272.65 327.72,270.69C326.80,268.73 325.36,265.63 324.52,263.81C323.69,261.99 322.31,259.01 321.48,257.19C320.64,255.37 319.20,252.27 318.28,250.31C317.36,248.35 316.03,245.46 315.31,243.88C314.60,242.30 313.22,239.31 312.26,237.25C311.29,235.19 309.71,231.81 308.74,229.75C307.78,227.69 306.40,224.70 305.69,223.12C304.97,221.54 303.64,218.65 302.72,216.69C301.80,214.73 300.36,211.63 299.52,209.81C298.69,207.99 297.31,205.01 296.48,203.19C295.64,201.37 294.15,198.16 293.17,196.06C292.19,193.97 290.73,190.84 289.94,189.12C289.15,187.41 287.85,184.59 287.06,182.88C286.27,181.16 284.80,178.01 283.80,175.87C282.80,173.74 281.40,170.70 280.69,169.12C279.97,167.54 278.64,164.65 277.72,162.69C276.80,160.73 275.36,157.63 274.52,155.81C273.69,153.99 272.31,151.01 271.48,149.19C270.64,147.37 269.15,144.16 268.17,142.06C267.19,139.97 265.73,136.84 264.94,135.12C264.15,133.41 262.85,130.59 262.06,128.88C261.27,127.16 259.80,124.01 258.81,121.89C256.68,117.35 256.48,114.95 258.12,113.90C259.42,113.08 263.81,111.38 266.75,110.56C277.89,107.47 291.19,110.37 300.27,117.86C306.54,123.03 309.65,127.90 316.49,143.25C317.10,144.62 318.36,147.35 319.28,149.31C320.20,151.27 321.64,154.37 322.48,156.19C323.31,158.01 324.69,160.99 325.52,162.81C326.36,164.63 327.80,167.73 328.72,169.69C329.64,171.65 330.97,174.54 331.69,176.12C332.40,177.70 333.80,180.74 334.80,182.87C335.80,185.01 337.27,188.16 338.06,189.88C338.85,191.59 340.15,194.41 340.94,196.12C341.73,197.84 343.20,200.99 344.20,203.13C345.20,205.26 346.60,208.30 347.31,209.88C348.03,211.46 349.36,214.35 350.28,216.31C351.20,218.27 352.64,221.37 353.48,223.19C354.31,225.01 355.69,227.99 356.52,229.81C357.36,231.63 358.80,234.73 359.72,236.69C360.64,238.65 361.97,241.54 362.69,243.12C363.40,244.70 364.80,247.74 365.80,249.87C366.80,252.01 368.27,255.16 369.06,256.88C369.85,258.59 371.15,261.41 371.94,263.12C372.73,264.84 374.19,267.97 375.17,270.06C376.15,272.16 377.64,275.37 378.48,277.19C379.31,279.01 380.68,281.96 381.50,283.75C382.32,285.54 383.68,288.46 384.50,290.25C385.32,292.04 386.69,294.99 387.52,296.81C388.36,298.63 389.85,301.84 390.83,303.94C393.00,308.57 394.80,312.46 397.21,317.75C399.57,322.93 399.66,323.09 400.69,323.72C401.39,324.15 401.80,323.98 402.78,322.85C403.45,322.08 404.00,321.16 404.00,320.82C404.00,320.47 404.42,319.30 404.94,318.22C406.01,315.98 408.92,309.75 411.06,305.12C411.85,303.41 413.18,300.54 414.00,298.75C414.82,296.96 416.18,294.04 417.00,292.25C417.82,290.46 419.15,287.59 419.94,285.88C420.73,284.16 422.19,281.03 423.17,278.94C424.15,276.84 425.64,273.63 426.48,271.81C427.31,269.99 428.68,267.04 429.50,265.25C430.32,263.46 431.68,260.54 432.50,258.75C433.32,256.96 434.69,254.01 435.52,252.19C436.36,250.37 437.80,247.27 438.72,245.31C439.64,243.35 440.97,240.46 441.69,238.88C442.40,237.30 443.80,234.26 444.80,232.13C445.80,229.99 447.27,226.84 448.06,225.12C448.85,223.41 450.15,220.59 450.94,218.88C451.73,217.16 453.20,214.01 454.20,211.87C455.20,209.74 456.60,206.70 457.31,205.12C458.03,203.54 459.36,200.65 460.28,198.69C461.20,196.73 462.64,193.63 463.48,191.81C464.31,189.99 465.69,187.01 466.52,185.19C467.36,183.37 468.80,180.27 469.72,178.31C470.64,176.35 471.97,173.46 472.69,171.88C473.40,170.30 474.80,167.26 475.80,165.13C476.80,162.99 478.27,159.84 479.06,158.12C479.85,156.41 481.15,153.59 481.94,151.88C482.73,150.16 484.20,147.01 485.20,144.87C486.20,142.74 487.60,139.70 488.31,138.12C492.58,128.61 494.42,125.56 498.43,121.35C504.76,114.69 511.72,111.17 521.49,109.69C525.22,109.12 527.03,109.08 529.99,109.51C538.85,110.79 546.00,113.82 546.00,116.29C546.00,116.66 545.01,119.04 543.81,121.60C540.03,129.61 538.03,133.90 536.69,136.88C535.97,138.46 534.64,141.35 533.72,143.31C532.80,145.27 531.36,148.37 530.52,150.19C529.69,152.01 528.31,154.99 527.48,156.81C526.64,158.63 525.20,161.73 524.28,163.69C523.36,165.65 522.03,168.54 521.31,170.12C520.60,171.70 519.22,174.69 518.26,176.75C517.29,178.81 515.71,182.19 514.74,184.25C513.78,186.31 512.40,189.30 511.69,190.88C510.97,192.46 509.64,195.35 508.72,197.31C507.80,199.27 506.36,202.37 505.52,204.19C504.69,206.01 503.31,208.99 502.48,210.81C501.64,212.63 500.15,215.84 499.17,217.94C498.19,220.03 496.73,223.16 495.94,224.88C495.15,226.59 493.85,229.41 493.06,231.12C492.27,232.84 490.80,235.99 489.80,238.13C488.80,240.26 487.40,243.30 486.69,244.88C485.97,246.46 484.64,249.35 483.72,251.31C482.80,253.27 481.36,256.37 480.52,258.19C479.69,260.01 478.31,262.99 477.48,264.81C476.64,266.63 475.15,269.84 474.17,271.94C473.19,274.03 471.73,277.16 470.94,278.88C470.15,280.59 468.85,283.41 468.06,285.12C467.27,286.84 465.81,289.97 464.83,292.06C463.85,294.16 462.36,297.37 461.52,299.19C460.69,301.01 459.32,303.96 458.50,305.75C457.68,307.54 456.32,310.46 455.50,312.25C454.68,314.04 453.31,316.99 452.48,318.81C451.64,320.63 450.15,323.84 449.17,325.94C446.28,332.10 444.67,335.62 443.76,337.75C439.86,346.88 435.03,353.27 428.07,358.50C420.66,364.07 413.15,366.74 403.75,367.15C400.73,367.29 397.46,367.31 396.50,367.20Z M885.25,367.17C880.56,366.76 874.05,364.34 869.10,361.17C861.94,356.59 856.11,348.77 853.74,340.55C851.96,334.37 851.95,333.45 852.10,170.00L852.25,9.25L857.00,9.09C873.30,8.56 887.38,18.16 893.16,33.75C895.34,39.65 895.25,31.94 895.25,204.00L895.25,367.25L891.25,367.30C889.05,367.33 886.35,367.27 885.25,367.17Z M1071.00,367.20C1067.25,367.01 1060.37,366.17 1056.75,365.46C1050.05,364.15 1048.50,363.80 1045.25,362.89C1033.81,359.69 1024.75,355.94 1015.23,350.47C989.70,335.82 969.96,313.24 959.29,286.50C954.58,274.72 952.37,265.61 950.52,250.50C950.18,247.75 950.00,222.51 950.00,179.14L950.00,112.02L951.28,111.19C952.36,110.47 953.47,110.39 958.73,110.64C966.71,111.02 971.05,112.08 976.92,115.08C983.19,118.29 987.89,123.10 990.72,129.21C992.97,134.06 992.96,133.99 992.99,189.00C993.02,245.95 993.09,247.55 995.91,259.75C999.35,274.64 1009.63,291.44 1021.94,302.29C1033.46,312.44 1047.72,319.60 1062.00,322.41C1069.03,323.80 1071.21,324.00 1079.00,324.00C1090.83,324.00 1101.92,322.06 1110.25,318.53C1110.80,318.29 1112.15,317.72 1113.25,317.26C1120.42,314.23 1129.31,308.69 1135.53,303.36C1149.12,291.74 1159.52,274.58 1163.18,257.74C1163.60,255.82 1164.22,253.01 1164.57,251.50C1165.04,249.42 1165.27,234.92 1165.50,191.75L1165.80,134.75L1167.14,131.32C1168.88,126.88 1170.15,124.85 1173.23,121.56C1179.66,114.71 1188.04,111.23 1199.55,110.65C1206.36,110.30 1207.63,110.53 1208.41,112.26C1208.85,113.22 1209.00,129.46 1208.99,176.65C1208.97,250.34 1208.86,252.89 1204.90,269.50C1203.84,273.91 1200.95,283.05 1199.71,285.88C1199.32,286.77 1198.64,288.34 1198.20,289.38C1186.20,317.47 1163.63,341.05 1136.00,354.37C1128.82,357.83 1126.13,359.00 1125.36,359.00C1124.99,359.00 1124.49,359.18 1124.23,359.41C1123.96,359.64 1122.06,360.34 1120.00,360.97C1117.94,361.60 1115.69,362.30 1115.00,362.53C1114.31,362.75 1111.84,363.38 1109.50,363.92C1105.54,364.83 1103.53,365.20 1095.75,366.46C1092.50,366.99 1076.27,367.47 1071.00,367.20Z M1342.50,367.18C1337.64,366.93 1329.07,365.58 1325.50,364.50C1324.81,364.29 1323.24,363.84 1322.00,363.50C1312.33,360.85 1300.33,354.77 1291.54,348.08C1280.62,339.75 1270.66,327.86 1264.77,316.11C1262.83,312.25 1262.15,310.76 1260.48,306.75C1259.42,304.19 1257.52,297.78 1256.56,293.50C1255.69,289.62 1255.52,288.44 1254.76,281.00C1254.12,274.78 1254.01,255.08 1254.01,142.69L1254.00,11.63L1255.04,10.32C1256.01,9.08 1256.33,9.00 1260.31,9.00C1266.50,9.00 1271.11,10.13 1277.00,13.09C1286.10,17.66 1292.51,25.19 1296.08,35.50C1297.19,38.71 1297.21,39.17 1297.48,72.00C1297.69,97.38 1297.90,105.51 1298.38,106.35C1299.96,109.11 1298.36,109.00 1335.64,109.00C1365.99,109.00 1370.23,109.09 1371.57,109.79L1373.10,110.58L1372.89,116.91C1372.75,121.18 1372.39,124.07 1371.80,125.75C1368.67,134.73 1363.42,141.69 1356.38,146.19C1353.18,148.24 1347.33,151.00 1346.20,151.00C1345.78,151.00 1344.94,151.28 1344.34,151.62C1343.54,152.08 1337.63,152.31 1322.13,152.50L1301.02,152.75L1299.38,154.38L1297.75,156.02L1297.75,217.88C1297.75,283.57 1297.67,281.25 1300.09,288.75C1304.66,302.93 1315.90,314.86 1330.03,320.53C1336.13,322.98 1341.76,324.00 1349.22,324.00C1357.62,324.00 1363.37,322.88 1369.75,320.02C1378.55,316.06 1387.29,315.03 1395.25,317.01C1397.45,317.55 1399.70,318.20 1400.25,318.43C1406.92,321.33 1413.43,326.10 1416.96,330.69C1420.31,335.05 1420.16,335.70 1414.46,341.22C1406.95,348.50 1399.72,353.61 1390.75,357.94C1386.05,360.22 1385.94,360.26 1381.50,361.94C1370.61,366.05 1356.86,367.90 1342.50,367.18Z M1482.25,367.16C1476.37,366.66 1470.38,364.36 1464.64,360.39C1457.27,355.30 1452.22,347.95 1449.98,339.06C1449.04,335.36 1449.02,332.08 1449.01,223.16L1449.00,111.07L1450.32,110.04C1451.88,108.81 1452.83,108.77 1459.04,109.71C1466.30,110.80 1470.50,112.39 1476.25,116.21C1481.91,119.96 1487.39,126.60 1489.72,132.50C1492.44,139.39 1492.22,129.58 1492.37,252.37C1492.52,365.23 1492.51,365.49 1491.51,366.49C1490.49,367.51 1488.24,367.67 1482.25,367.16Z M1842.74,366.90C1842.16,365.39 1842.82,224.90 1843.41,222.00C1843.72,220.49 1844.22,217.79 1844.51,216.00C1845.25,211.55 1846.34,206.78 1847.50,203.00C1849.70,195.79 1850.24,194.18 1850.59,193.77C1850.82,193.51 1851.00,193.01 1851.00,192.64C1851.00,190.60 1859.15,174.70 1863.74,167.78C1882.00,140.26 1909.68,120.67 1941.00,113.09C1949.59,111.01 1954.30,110.31 1965.01,109.50C1976.82,108.61 1993.77,110.45 2006.12,113.97C2007.16,114.26 2008.73,114.71 2009.62,114.96C2013.08,115.93 2016.89,117.30 2020.25,118.76C2021.08,119.12 2022.76,119.82 2024.00,120.31C2030.13,122.73 2041.96,129.67 2049.14,135.07C2066.93,148.43 2081.86,167.18 2090.20,186.62C2090.64,187.66 2091.32,189.23 2091.71,190.12C2092.62,192.23 2094.47,197.33 2095.01,199.25C2098.12,210.26 2098.97,214.24 2100.49,224.85C2100.82,227.17 2101.00,253.02 2101.00,297.97L2101.00,367.50L2096.88,367.48C2094.61,367.46 2090.61,367.25 2088.00,367.00C2083.58,366.58 2082.33,366.36 2077.38,365.09C2071.14,363.49 2063.57,357.61 2060.80,352.22C2057.90,346.59 2058.00,348.80 2058.00,288.70C2058.00,253.52 2057.81,232.14 2057.49,229.85C2056.13,220.33 2056.06,220.03 2053.48,211.75C2047.13,191.35 2030.62,172.01 2011.25,162.29C2001.57,157.43 1996.91,155.88 1985.50,153.70C1980.25,152.70 1963.27,152.55 1958.75,153.47C1946.71,155.92 1940.49,157.97 1932.50,162.15C1915.89,170.84 1902.23,184.92 1894.42,201.39C1890.60,209.44 1888.93,214.27 1887.55,221.25C1887.28,222.62 1886.82,224.95 1886.53,226.41C1886.18,228.18 1886.00,247.76 1886.00,284.70C1886.00,320.29 1885.82,341.38 1885.49,343.28C1884.21,350.71 1881.43,355.95 1876.83,359.58C1870.49,364.60 1863.16,366.74 1850.42,367.32C1844.07,367.61 1842.99,367.55 1842.74,366.90Z M1682.96,326.49C1687.12,325.84 1690.99,325.05 1694.50,324.13C1696.01,323.74 1697.92,323.24 1698.75,323.02C1700.06,322.68 1702.24,321.90 1705.75,320.51C1723.39,313.55 1739.16,300.76 1749.83,284.75C1752.63,280.56 1757.46,271.52 1758.12,269.25C1758.28,268.70 1758.91,266.90 1759.52,265.25C1762.49,257.21 1764.00,248.14 1764.00,238.32C1764.00,231.82 1763.81,229.96 1762.40,222.50C1761.08,215.49 1758.15,207.31 1754.38,200.05C1741.87,176.02 1718.54,158.11 1691.75,151.94C1676.64,148.47 1658.36,149.07 1643.75,153.53C1641.83,154.12 1639.74,154.71 1639.12,154.86C1638.49,155.00 1637.86,155.32 1637.71,155.56C1637.56,155.80 1637.08,156.00 1636.63,156.00C1635.19,156.00 1623.44,162.01 1618.78,165.14C1606.31,173.49 1595.78,184.52 1588.80,196.53C1585.91,201.51 1581.99,210.38 1580.98,214.25C1580.76,215.07 1580.26,216.99 1579.85,218.50C1578.44,223.80 1576.99,233.90 1577.01,238.40C1577.02,241.48 1578.24,252.00 1578.96,255.25C1580.73,263.22 1582.55,268.19 1586.78,276.62C1591.09,285.24 1596.82,292.79 1605.06,300.76C1610.84,306.34 1615.27,309.79 1620.94,313.13C1633.75,320.67 1641.16,323.35 1657.75,326.40C1661.25,327.05 1678.99,327.11 1682.96,326.49Z M221.00,216.37C221.00,216.03 220.42,214.17 219.70,212.25C218.99,210.32 218.28,208.30 218.12,207.75C217.62,205.93 212.21,195.75 210.00,192.47C201.39,179.71 189.49,169.28 175.96,162.64C165.59,157.55 159.91,155.73 147.25,153.46C142.66,152.64 125.34,152.64 120.75,153.46C112.66,154.91 105.60,156.73 101.25,158.47C100.70,158.69 99.69,159.09 99.00,159.36C95.51,160.73 86.39,165.48 83.04,167.67C68.38,177.23 55.62,192.80 49.56,208.50C48.65,210.84 47.71,213.27 47.46,213.90C47.21,214.53 47.00,215.49 47.00,216.02C47.00,216.99 48.03,217.00 134.00,217.00C203.43,217.00 221.00,216.87 221.00,216.37Z M1440.18,73.11C1438.05,71.39 1438.00,70.84 1438.00,50.85C1438.00,32.33 1438.04,31.59 1439.01,30.35C1439.96,29.14 1442.47,27.11 1452.50,19.44C1469.66,6.31 1468.64,7.00 1470.84,7.00C1472.57,7.00 1473.61,7.66 1481.50,13.76C1484.94,16.41 1490.30,20.52 1493.41,22.88C1496.52,25.24 1500.01,28.01 1501.16,29.03L1503.25,30.89L1503.25,50.91L1503.25,70.93L1501.78,72.47L1500.31,74.00L1470.78,73.99C1443.56,73.98 1441.17,73.91 1440.18,73.11Z" fill="#FFFFFF" fill-rule="evenodd" opacity="1.0" transform="translate(8.5000,5.2000) scale(0.020853)"/>
<path d="M14.0509 21.6305V23.55H13.6659V22.7333H12.8436V23.55H12.4586V21.6305H12.8436V22.4198H13.6659V21.6305Z M14.3341 22.7883Q14.3341 22.5545 14.4373 22.3758Q14.5404 22.197 14.7191 22.0994Q14.8979 22.0018 15.1179 22.0018Q15.3379 22.0018 15.5166 22.0994Q15.6954 22.197 15.7985 22.3758Q15.9016 22.5545 15.9016 22.7883Q15.9016 23.022 15.7958 23.2007Q15.6899 23.3795 15.5098 23.4771Q15.3296 23.5748 15.1069 23.5748Q14.8869 23.5748 14.7109 23.4771Q14.5349 23.3795 14.4345 23.2007Q14.3341 23.022 14.3341 22.7883ZM15.5056 22.7883Q15.5056 22.571 15.3915 22.4541Q15.2774 22.3373 15.1124 22.3373Q14.9474 22.3373 14.836 22.4541Q14.7246 22.571 14.7246 22.7883Q14.7246 23.0055 14.8333 23.1224Q14.9419 23.2393 15.1069 23.2393Q15.2114 23.2393 15.3035 23.1884Q15.3956 23.1375 15.4506 23.0358Q15.5056 22.934 15.5056 22.7883Z M18.7011 22.6562V23.55H18.3161V22.7085Q18.3161 22.5297 18.2254 22.4349Q18.1346 22.34 17.9779 22.34Q17.8211 22.34 17.729 22.4349Q17.6369 22.5297 17.6369 22.7085V23.55H17.2519V22.7085Q17.2519 22.5297 17.1611 22.4349Q17.0704 22.34 16.9136 22.34Q16.7541 22.34 16.662 22.4349Q16.5699 22.5297 16.5699 22.7085V23.55H16.1849V22.0265H16.5699V22.2108Q16.6441 22.1145 16.761 22.0595Q16.8779 22.0045 17.0181 22.0045Q17.1969 22.0045 17.3371 22.0801Q17.4774 22.1558 17.5544 22.296Q17.6286 22.164 17.7703 22.0843Q17.9119 22.0045 18.0769 22.0045Q18.3574 22.0045 18.5293 22.1764Q18.7011 22.3483 18.7011 22.6562Z M20.4721 22.9038H19.3584Q19.3721 23.0688 19.4739 23.1623Q19.5756 23.2557 19.7241 23.2557Q19.9386 23.2557 20.0294 23.0715H20.4446Q20.3786 23.2915 20.1916 23.4331Q20.0046 23.5748 19.7324 23.5748Q19.5124 23.5748 19.3377 23.4771Q19.1631 23.3795 19.0655 23.2007Q18.9679 23.022 18.9679 22.7883Q18.9679 22.5518 19.0641 22.373Q19.1604 22.1943 19.3336 22.098Q19.5069 22.0018 19.7324 22.0018Q19.9496 22.0018 20.1215 22.0953Q20.2934 22.1888 20.3882 22.3606Q20.4831 22.5325 20.4831 22.7553Q20.4831 22.8377 20.4721 22.9038ZM20.0844 22.6453Q20.0816 22.4968 19.9771 22.4074Q19.8726 22.318 19.7214 22.318Q19.5784 22.318 19.4808 22.4046Q19.3831 22.4913 19.3611 22.6453Z M21.8031 21.515V23.55H21.4181V21.515Z M22.0864 22.7883Q22.0864 22.5545 22.1895 22.3758Q22.2926 22.197 22.4714 22.0994Q22.6501 22.0018 22.8701 22.0018Q23.0901 22.0018 23.2689 22.0994Q23.4476 22.197 23.5508 22.3758Q23.6539 22.5545 23.6539 22.7883Q23.6539 23.022 23.548 23.2007Q23.4421 23.3795 23.262 23.4771Q23.0819 23.5748 22.8591 23.5748Q22.6391 23.5748 22.4631 23.4771Q22.2871 23.3795 22.1868 23.2007Q22.0864 23.022 22.0864 22.7883ZM23.2579 22.7883Q23.2579 22.571 23.1438 22.4541Q23.0296 22.3373 22.8646 22.3373Q22.6996 22.3373 22.5883 22.4541Q22.4769 22.571 22.4769 22.7883Q22.4769 23.0055 22.5855 23.1224Q22.6941 23.2393 22.8591 23.2393Q22.9636 23.2393 23.0558 23.1884Q23.1479 23.1375 23.2029 23.0358Q23.2579 22.934 23.2579 22.7883Z M24.5339 22.0018Q24.7044 22.0018 24.8323 22.0705Q24.9601 22.1393 25.0371 22.2438V22.0265H25.4249V23.55H25.0371V23.3272Q24.9629 23.4345 24.8323 23.5046Q24.7016 23.5748 24.5311 23.5748Q24.3386 23.5748 24.1805 23.4758Q24.0224 23.3768 23.9303 23.1966Q23.8381 23.0165 23.8381 22.7828Q23.8381 22.5518 23.9303 22.373Q24.0224 22.1943 24.1805 22.098Q24.3386 22.0018 24.5339 22.0018ZM24.6329 22.34Q24.5256 22.34 24.4349 22.3923Q24.3441 22.4445 24.2878 22.5449Q24.2314 22.6453 24.2314 22.7828Q24.2314 22.9202 24.2878 23.0234Q24.3441 23.1265 24.4363 23.1815Q24.5284 23.2365 24.6329 23.2365Q24.7401 23.2365 24.8336 23.1829Q24.9271 23.1292 24.9821 23.0289Q25.0371 22.9285 25.0371 22.7883Q25.0371 22.648 24.9821 22.5476Q24.9271 22.4473 24.8336 22.3936Q24.7401 22.34 24.6329 22.34Z M27.2536 22.6562V23.55H26.8686V22.7085Q26.8686 22.527 26.7779 22.4294Q26.6871 22.3317 26.5304 22.3317Q26.3709 22.3317 26.2788 22.4294Q26.1866 22.527 26.1866 22.7085V23.55H25.8016V22.0265H26.1866V22.2163Q26.2636 22.1173 26.3833 22.0609Q26.5029 22.0045 26.6459 22.0045Q26.9181 22.0045 27.0859 22.1764Q27.2536 22.3483 27.2536 22.6562Z M27.5369 23.0688H27.9246Q27.9356 23.1568 28.0113 23.2145Q28.0869 23.2722 28.1996 23.2722Q28.3096 23.2722 28.3715 23.2283Q28.4334 23.1843 28.4334 23.1155Q28.4334 23.0413 28.3578 23.0041Q28.2821 22.967 28.1171 22.923Q27.9466 22.8818 27.838 22.8377Q27.7294 22.7937 27.651 22.703Q27.5726 22.6122 27.5726 22.4582Q27.5726 22.3317 27.6455 22.2272Q27.7184 22.1227 27.8545 22.0622Q27.9906 22.0018 28.1749 22.0018Q28.4471 22.0018 28.6094 22.1379Q28.7716 22.274 28.7881 22.505H28.4196Q28.4114 22.4142 28.344 22.3606Q28.2766 22.307 28.1639 22.307Q28.0594 22.307 28.003 22.3455Q27.9466 22.384 27.9466 22.4528Q27.9466 22.5297 28.0236 22.5696Q28.1006 22.6095 28.2629 22.6508Q28.4279 22.692 28.5351 22.736Q28.6424 22.78 28.7208 22.8721Q28.7991 22.9642 28.8019 23.1155Q28.8019 23.2475 28.729 23.352Q28.6561 23.4565 28.52 23.5156Q28.3839 23.5748 28.2024 23.5748Q28.0154 23.5748 27.8669 23.5074Q27.7184 23.44 27.6318 23.3245Q27.5451 23.209 27.5369 23.0688Z M32.2889 22.6562V23.55H31.9039V22.7085Q31.9039 22.5297 31.8131 22.4349Q31.7224 22.34 31.5656 22.34Q31.4089 22.34 31.3167 22.4349Q31.2246 22.5297 31.2246 22.7085V23.55H30.8396V22.7085Q30.8396 22.5297 30.7489 22.4349Q30.6581 22.34 30.5014 22.34Q30.3419 22.34 30.2498 22.4349Q30.1576 22.5297 30.1576 22.7085V23.55H29.7726V22.0265H30.1576V22.2108Q30.2319 22.1145 30.3488 22.0595Q30.4656 22.0045 30.6059 22.0045Q30.7846 22.0045 30.9249 22.0801Q31.0651 22.1558 31.1421 22.296Q31.2164 22.164 31.358 22.0843Q31.4996 22.0045 31.6646 22.0045Q31.9451 22.0045 32.117 22.1764Q32.2889 22.3483 32.2889 22.6562Z M33.2514 22.0018Q33.4219 22.0018 33.5498 22.0705Q33.6776 22.1393 33.7546 22.2438V22.0265H34.1424V23.55H33.7546V23.3272Q33.6804 23.4345 33.5498 23.5046Q33.4191 23.5748 33.2486 23.5748Q33.0561 23.5748 32.898 23.4758Q32.7399 23.3768 32.6478 23.1966Q32.5556 23.0165 32.5556 22.7828Q32.5556 22.5518 32.6478 22.373Q32.7399 22.1943 32.898 22.098Q33.0561 22.0018 33.2514 22.0018ZM33.3504 22.34Q33.2431 22.34 33.1524 22.3923Q33.0616 22.4445 33.0053 22.5449Q32.9489 22.6453 32.9489 22.7828Q32.9489 22.9202 33.0053 23.0234Q33.0616 23.1265 33.1538 23.1815Q33.2459 23.2365 33.3504 23.2365Q33.4576 23.2365 33.5511 23.1829Q33.6446 23.1292 33.6996 23.0289Q33.7546 22.9285 33.7546 22.7883Q33.7546 22.648 33.6996 22.5476Q33.6446 22.4473 33.5511 22.3936Q33.4576 22.34 33.3504 22.34Z M35.1186 22.0018Q35.2671 22.0018 35.4019 22.0664Q35.5366 22.131 35.6164 22.2383V21.515H36.0069V23.55H35.6164V23.3245Q35.5449 23.4373 35.4156 23.506Q35.2864 23.5748 35.1159 23.5748Q34.9234 23.5748 34.7639 23.4758Q34.6044 23.3768 34.5122 23.1966Q34.4201 23.0165 34.4201 22.7828Q34.4201 22.5518 34.5122 22.373Q34.6044 22.1943 34.7639 22.098Q34.9234 22.0018 35.1186 22.0018ZM35.2149 22.34Q35.1076 22.34 35.0169 22.3923Q34.9261 22.4445 34.8697 22.5449Q34.8134 22.6453 34.8134 22.7828Q34.8134 22.9202 34.8697 23.0234Q34.9261 23.1265 35.0182 23.1815Q35.1104 23.2365 35.2149 23.2365Q35.3221 23.2365 35.4156 23.1829Q35.5091 23.1292 35.5641 23.0289Q35.6191 22.9285 35.6191 22.7883Q35.6191 22.648 35.5641 22.5476Q35.5091 22.4473 35.4156 22.3936Q35.3221 22.34 35.2149 22.34Z M37.7889 22.9038H36.6751Q36.6889 23.0688 36.7906 23.1623Q36.8924 23.2557 37.0409 23.2557Q37.2554 23.2557 37.3461 23.0715H37.7614Q37.6954 23.2915 37.5084 23.4331Q37.3214 23.5748 37.0491 23.5748Q36.8291 23.5748 36.6545 23.4771Q36.4799 23.3795 36.3822 23.2007Q36.2846 23.022 36.2846 22.7883Q36.2846 22.5518 36.3809 22.373Q36.4771 22.1943 36.6504 22.098Q36.8236 22.0018 37.0491 22.0018Q37.2664 22.0018 37.4382 22.0953Q37.6101 22.1888 37.705 22.3606Q37.7999 22.5325 37.7999 22.7553Q37.7999 22.8377 37.7889 22.9038ZM37.4011 22.6453Q37.3984 22.4968 37.2939 22.4074Q37.1894 22.318 37.0381 22.318Q36.8951 22.318 36.7975 22.4046Q36.6999 22.4913 36.6779 22.6453Z" fill="#FFFFFF"/>
<path d="M38.6524 23.0688H39.0401Q39.0511 23.1568 39.1268 23.2145Q39.2024 23.2722 39.3151 23.2722Q39.4251 23.2722 39.487 23.2283Q39.5489 23.1843 39.5489 23.1155Q39.5489 23.0413 39.4732 23.0041Q39.3976 22.967 39.2326 22.923Q39.0621 22.8818 38.9535 22.8377Q38.8449 22.7937 38.7665 22.703Q38.6881 22.6122 38.6881 22.4582Q38.6881 22.3317 38.761 22.2272Q38.8339 22.1227 38.97 22.0622Q39.1061 22.0018 39.2904 22.0018Q39.5626 22.0018 39.7249 22.1379Q39.8871 22.274 39.9036 22.505H39.5351Q39.5269 22.4142 39.4595 22.3606Q39.3921 22.307 39.2794 22.307Q39.1749 22.307 39.1185 22.3455Q39.0621 22.384 39.0621 22.4528Q39.0621 22.5297 39.1391 22.5696Q39.2161 22.6095 39.3784 22.6508Q39.5434 22.692 39.6506 22.736Q39.7579 22.78 39.8362 22.8721Q39.9146 22.9642 39.9174 23.1155Q39.9174 23.2475 39.8445 23.352Q39.7716 23.4565 39.6355 23.5156Q39.4994 23.5748 39.3179 23.5748Q39.1309 23.5748 38.9824 23.5074Q38.8339 23.44 38.7472 23.3245Q38.6606 23.209 38.6524 23.0688Z M40.1924 21.6195Q40.1924 21.5233 40.2597 21.4586Q40.3271 21.394 40.4289 21.394Q40.5306 21.394 40.598 21.4586Q40.6654 21.5233 40.6654 21.6195Q40.6654 21.7157 40.598 21.7804Q40.5306 21.845 40.4289 21.845Q40.3271 21.845 40.2597 21.7804Q40.1924 21.7157 40.1924 21.6195ZM40.6186 22.0265V23.55H40.2336V22.0265Z M43.5144 22.6562V23.55H43.1294V22.7085Q43.1294 22.5297 43.0386 22.4349Q42.9479 22.34 42.7911 22.34Q42.6344 22.34 42.5422 22.4349Q42.4501 22.5297 42.4501 22.7085V23.55H42.0651V22.7085Q42.0651 22.5297 41.9744 22.4349Q41.8836 22.34 41.7269 22.34Q41.5674 22.34 41.4753 22.4349Q41.3831 22.5297 41.3831 22.7085V23.55H40.9981V22.0265H41.3831V22.2108Q41.4574 22.1145 41.5742 22.0595Q41.6911 22.0045 41.8314 22.0045Q42.0101 22.0045 42.1504 22.0801Q42.2906 22.1558 42.3676 22.296Q42.4419 22.164 42.5835 22.0843Q42.7251 22.0045 42.8901 22.0045Q43.1706 22.0045 43.3425 22.1764Q43.5144 22.3483 43.5144 22.6562Z M44.7684 22.0018Q44.9636 22.0018 45.1217 22.098Q45.2799 22.1943 45.372 22.3716Q45.4641 22.549 45.4641 22.7828Q45.4641 23.0165 45.372 23.1966Q45.2799 23.3768 45.1217 23.4758Q44.9636 23.5748 44.7684 23.5748Q44.6006 23.5748 44.4727 23.506Q44.3449 23.4373 44.2651 23.3328V24.276H43.8801V22.0265H44.2651V22.2465Q44.3394 22.142 44.47 22.0719Q44.6006 22.0018 44.7684 22.0018ZM44.6666 22.34Q44.5621 22.34 44.47 22.3936Q44.3779 22.4473 44.3215 22.549Q44.2651 22.6508 44.2651 22.7883Q44.2651 22.9258 44.3215 23.0275Q44.3779 23.1292 44.47 23.1829Q44.5621 23.2365 44.6666 23.2365Q44.7739 23.2365 44.866 23.1815Q44.9581 23.1265 45.0145 23.0248Q45.0709 22.923 45.0709 22.7828Q45.0709 22.6453 45.0145 22.5449Q44.9581 22.4445 44.866 22.3923Q44.7739 22.34 44.6666 22.34Z M46.1296 21.515V23.55H45.7446V21.515Z M47.9144 22.9038H46.8006Q46.8144 23.0688 46.9161 23.1623Q47.0179 23.2557 47.1664 23.2557Q47.3809 23.2557 47.4716 23.0715H47.8869Q47.8209 23.2915 47.6339 23.4331Q47.4469 23.5748 47.1746 23.5748Q46.9546 23.5748 46.78 23.4771Q46.6054 23.3795 46.5077 23.2007Q46.4101 23.022 46.4101 22.7883Q46.4101 22.5518 46.5064 22.373Q46.6026 22.1943 46.7759 22.098Q46.9491 22.0018 47.1746 22.0018Q47.3919 22.0018 47.5637 22.0953Q47.7356 22.1888 47.8305 22.3606Q47.9254 22.5325 47.9254 22.7553Q47.9254 22.8377 47.9144 22.9038ZM47.5266 22.6453Q47.5239 22.4968 47.4194 22.4074Q47.3149 22.318 47.1636 22.318Q47.0206 22.318 46.923 22.4046Q46.8254 22.4913 46.8034 22.6453Z M48.1371 23.3438Q48.1371 23.2475 48.2045 23.1829Q48.2719 23.1182 48.3764 23.1182Q48.4781 23.1182 48.5441 23.1829Q48.6101 23.2475 48.6101 23.3438Q48.6101 23.44 48.5441 23.5046Q48.4781 23.5693 48.3764 23.5693Q48.2719 23.5693 48.2045 23.5046Q48.1371 23.44 48.1371 23.3438Z" fill="url(#accent)"/>
<rect x="23.500" y="26.75" width="14" height="0.16" rx="0.08" fill="url(#brand)"/>
<path d="M12.6277 31.1V30.4088H13.0629V30.4998H12.7335V30.7057H13.0392V30.7962H12.7335V31.0091H13.0656V31.1Z M13.3507 31.1 13.1549 30.5814H13.2653L13.3678 30.876Q13.385 30.9247 13.3971 30.9736Q13.4091 31.0225 13.4226 31.0708H13.392Q13.4049 31.0225 13.417 30.9736Q13.4291 30.9247 13.4458 30.876L13.5483 30.5814H13.6578L13.462 31.1Z M13.9576 31.1107Q13.8848 31.1107 13.8303 31.0773Q13.7758 31.0439 13.7456 30.9836Q13.7155 30.9233 13.7155 30.8435Q13.7155 30.7628 13.7456 30.7022Q13.7758 30.6417 13.8303 30.6083Q13.8848 30.5749 13.9576 30.5749Q14.0309 30.5749 14.0854 30.6083Q14.1399 30.6417 14.1701 30.7022Q14.2002 30.7628 14.2002 30.8435Q14.2002 30.9233 14.1701 30.9836Q14.1399 31.0439 14.0854 31.0773Q14.0309 31.1107 13.9576 31.1107ZM13.9576 31.0244Q14.005 31.0244 14.0358 30.9996Q14.0666 30.9748 14.0817 30.9337Q14.0968 30.8927 14.0968 30.8435Q14.0968 30.7938 14.0817 30.7523Q14.0666 30.7108 14.0358 30.686Q14.005 30.6612 13.9576 30.6612Q13.9108 30.6612 13.8802 30.686Q13.8496 30.7108 13.8345 30.7521Q13.8194 30.7934 13.8194 30.8435Q13.8194 30.8927 13.8345 30.9337Q13.8496 30.9748 13.8802 30.9996Q13.9108 31.0244 13.9576 31.0244Z M14.425 30.4088V31.1H14.3229V30.4088Z M14.7485 31.1065Q14.6956 31.1065 14.6557 31.0842Q14.6158 31.062 14.5938 31.0184Q14.5718 30.9748 14.5718 30.9107V30.5814H14.6738V30.8982Q14.6738 30.9543 14.7033 30.9859Q14.7327 31.0174 14.7833 31.0174Q14.8181 31.0174 14.8452 31.0024Q14.8724 30.9873 14.8881 30.9583Q14.9039 30.9293 14.9039 30.8885V30.5814H15.006V31.1H14.9085L14.9081 30.9729H14.9178Q14.8951 31.0434 14.8515 31.075Q14.8079 31.1065 14.7485 31.1065Z M15.3745 30.5814V30.6644H15.0934V30.5814ZM15.169 30.458H15.271V30.9599Q15.271 30.991 15.2843 31.0056Q15.2975 31.0202 15.3276 31.0202Q15.3355 31.0202 15.3485 31.0184Q15.3615 31.0165 15.3708 31.0146L15.3889 31.0963Q15.3726 31.1019 15.3541 31.1044Q15.3355 31.107 15.3174 31.107Q15.2469 31.107 15.208 31.0705Q15.169 31.0341 15.169 30.9683Z M15.4856 31.1V30.5814H15.5876V31.1ZM15.5371 30.5021Q15.5106 30.5021 15.4918 30.4844Q15.4731 30.4668 15.4731 30.4418Q15.4731 30.4163 15.4918 30.3986Q15.5106 30.381 15.5371 30.381Q15.5635 30.381 15.5825 30.3986Q15.6015 30.4163 15.6015 30.4418Q15.6015 30.4668 15.5825 30.4844Q15.5635 30.5021 15.5371 30.5021Z M15.9525 31.1107Q15.8796 31.1107 15.8251 31.0773Q15.7706 31.0439 15.7405 30.9836Q15.7103 30.9233 15.7103 30.8435Q15.7103 30.7628 15.7405 30.7022Q15.7706 30.6417 15.8251 30.6083Q15.8796 30.5749 15.9525 30.5749Q16.0257 30.5749 16.0802 30.6083Q16.1348 30.6417 16.1649 30.7022Q16.1951 30.7628 16.1951 30.8435Q16.1951 30.9233 16.1649 30.9836Q16.1348 31.0439 16.0802 31.0773Q16.0257 31.1107 15.9525 31.1107ZM15.9525 31.0244Q15.9998 31.0244 16.0306 30.9996Q16.0615 30.9748 16.0765 30.9337Q16.0916 30.8927 16.0916 30.8435Q16.0916 30.7938 16.0765 30.7523Q16.0615 30.7108 16.0306 30.686Q15.9998 30.6612 15.9525 30.6612Q15.9056 30.6612 15.875 30.686Q15.8444 30.7108 15.8293 30.7521Q15.8142 30.7934 15.8142 30.8435Q15.8142 30.8927 15.8293 30.9337Q15.8444 30.9748 15.875 30.9996Q15.9056 31.0244 15.9525 31.0244Z M16.4198 30.7929V31.1H16.3177V30.5814H16.4151L16.4161 30.7085H16.4054Q16.4281 30.6389 16.4713 30.6069Q16.5144 30.5749 16.5756 30.5749Q16.6285 30.5749 16.668 30.5972Q16.7074 30.6194 16.7297 30.6628Q16.7519 30.7062 16.7519 30.7707V31.1H16.6499V30.7832Q16.6499 30.7271 16.6206 30.6955Q16.5914 30.664 16.5404 30.664Q16.5061 30.664 16.4787 30.679Q16.4513 30.6941 16.4356 30.7229Q16.4198 30.7516 16.4198 30.7929Z M17.1694 31.1V30.4088H17.3252L17.476 30.8054Q17.4825 30.8231 17.4906 30.85Q17.4987 30.8769 17.5075 30.9084Q17.5164 30.94 17.5242 30.9706Q17.5321 31.0012 17.5382 31.0258H17.5159Q17.5219 31.0026 17.5298 30.9722Q17.5377 30.9418 17.5465 30.9103Q17.5553 30.8787 17.5637 30.8509Q17.572 30.8231 17.5785 30.8054L17.7269 30.4088H17.8837V31.1H17.7784V30.728Q17.7784 30.7066 17.7789 30.677Q17.7794 30.6473 17.7801 30.6141Q17.7808 30.5809 17.7815 30.5471Q17.7821 30.5132 17.7826 30.4821H17.7905Q17.7812 30.516 17.7703 30.5519Q17.7594 30.5879 17.749 30.6213Q17.7385 30.6547 17.729 30.6823Q17.7195 30.7099 17.713 30.728L17.5716 31.1H17.4811L17.3378 30.728Q17.3308 30.7104 17.3218 30.6832Q17.3127 30.6561 17.302 30.6229Q17.2914 30.5897 17.2802 30.5538Q17.2691 30.5178 17.258 30.4821H17.2673Q17.2682 30.5104 17.2689 30.5436Q17.2696 30.5768 17.2703 30.6106Q17.271 30.6445 17.2717 30.6749Q17.2724 30.7052 17.2724 30.728V31.1Z M18.256 31.1107Q18.1832 31.1107 18.1286 31.0773Q18.0741 31.0439 18.044 30.9836Q18.0138 30.9233 18.0138 30.8435Q18.0138 30.7628 18.044 30.7022Q18.0741 30.6417 18.1286 30.6083Q18.1832 30.5749 18.256 30.5749Q18.3293 30.5749 18.3838 30.6083Q18.4383 30.6417 18.4684 30.7022Q18.4986 30.7628 18.4986 30.8435Q18.4986 30.9233 18.4684 30.9836Q18.4383 31.0439 18.3838 31.0773Q18.3293 31.1107 18.256 31.1107ZM18.256 31.0244Q18.3033 31.0244 18.3341 30.9996Q18.365 30.9748 18.3801 30.9337Q18.3951 30.8927 18.3951 30.8435Q18.3951 30.7938 18.3801 30.7523Q18.365 30.7108 18.3341 30.686Q18.3033 30.6612 18.256 30.6612Q18.2091 30.6612 18.1785 30.686Q18.1479 30.7108 18.1328 30.7521Q18.1177 30.7934 18.1177 30.8435Q18.1177 30.8927 18.1328 30.9337Q18.1479 30.9748 18.1785 30.9996Q18.2091 31.0244 18.256 31.0244Z M18.6213 31.1V30.5814H18.7201V30.6649H18.7256Q18.74 30.6222 18.7757 30.5981Q18.8114 30.574 18.8569 30.574Q18.8666 30.574 18.8792 30.5747Q18.8917 30.5754 18.9 30.5768V30.6742Q18.8945 30.6723 18.8787 30.6705Q18.8629 30.6686 18.8467 30.6686Q18.8114 30.6686 18.7832 30.6834Q18.7549 30.6983 18.7391 30.7245Q18.7233 30.7507 18.7233 30.785V31.1Z M19.2361 30.5814V30.6644H18.955V30.5814ZM19.0306 30.458H19.1327V30.9599Q19.1327 30.991 19.1459 31.0056Q19.1591 31.0202 19.1893 31.0202Q19.1971 31.0202 19.2101 31.0184Q19.2231 31.0165 19.2324 31.0146L19.2505 31.0963Q19.2343 31.1019 19.2157 31.1044Q19.1971 31.107 19.1791 31.107Q19.1085 31.107 19.0696 31.0705Q19.0306 31.0341 19.0306 30.9683Z M19.5545 31.305Q19.4947 31.305 19.4506 31.2897Q19.4066 31.2744 19.378 31.2489Q19.3495 31.2234 19.3347 31.1923L19.42 31.152Q19.4293 31.1668 19.4448 31.1833Q19.4604 31.1997 19.4868 31.2113Q19.5133 31.2229 19.5545 31.2229Q19.6139 31.2229 19.6508 31.1949Q19.6877 31.1668 19.6877 31.107V31.0058H19.6789Q19.6696 31.023 19.6531 31.0429Q19.6367 31.0629 19.6072 31.0775Q19.5777 31.0921 19.5304 31.0921Q19.4692 31.0921 19.4203 31.0634Q19.3713 31.0346 19.3426 30.978Q19.3138 30.9214 19.3138 30.8388Q19.3138 30.7563 19.3423 30.6971Q19.3709 30.638 19.4203 30.6064Q19.4697 30.5749 19.5318 30.5749Q19.5796 30.5749 19.6095 30.5907Q19.6394 30.6064 19.6564 30.628Q19.6733 30.6496 19.6821 30.6658H19.6895V30.5814H19.7893V31.1074Q19.7893 31.1756 19.7584 31.2194Q19.7276 31.2633 19.6745 31.2842Q19.6213 31.305 19.5545 31.305ZM19.5541 31.0072Q19.5977 31.0072 19.6276 30.987Q19.6575 30.9669 19.6728 30.9286Q19.6881 30.8903 19.6881 30.8375Q19.6881 30.785 19.6728 30.7456Q19.6575 30.7062 19.6276 30.6839Q19.5977 30.6616 19.5541 30.6616Q19.5091 30.6616 19.4789 30.6851Q19.4488 30.7085 19.4335 30.7482Q19.4182 30.7878 19.4182 30.8375Q19.4182 30.888 19.4335 30.9263Q19.4488 30.9646 19.4792 30.9859Q19.5096 31.0072 19.5541 31.0072Z M20.0813 31.1116Q20.0321 31.1116 19.9922 31.0933Q19.9523 31.075 19.9291 31.0397Q19.9059 31.0044 19.9059 30.9534Q19.9059 30.9094 19.9228 30.8811Q19.9398 30.8528 19.9688 30.8361Q19.9978 30.8194 20.0332 30.811Q20.0687 30.8027 20.1054 30.7985Q20.1513 30.7929 20.1801 30.7894Q20.2088 30.786 20.2225 30.7778Q20.2362 30.7697 20.2362 30.7516V30.7489Q20.2362 30.7196 20.2251 30.6997Q20.2139 30.6797 20.1919 30.6688Q20.1699 30.6579 20.1369 30.6579Q20.1031 30.6579 20.0787 30.6684Q20.0544 30.6788 20.0393 30.695Q20.0242 30.7113 20.0168 30.7289L19.9208 30.7039Q19.9384 30.6575 19.9713 30.6292Q20.0043 30.6009 20.0469 30.5879Q20.0896 30.5749 20.1351 30.5749Q20.1666 30.5749 20.2019 30.5823Q20.2371 30.5897 20.2682 30.6092Q20.2993 30.6287 20.3188 30.664Q20.3382 30.6992 20.3382 30.7558V31.1H20.2394V31.029H20.2343Q20.2241 31.049 20.2042 31.068Q20.1842 31.087 20.1539 31.0993Q20.1235 31.1116 20.0813 31.1116ZM20.104 31.0295Q20.1457 31.0295 20.1754 31.0133Q20.2051 30.997 20.2209 30.9701Q20.2367 30.9432 20.2367 30.9131V30.8467Q20.2311 30.8523 20.2155 30.8567Q20.2 30.8611 20.1801 30.8646Q20.1601 30.8681 20.1416 30.8704Q20.123 30.8727 20.1109 30.8741Q20.0822 30.8778 20.0583 30.8866Q20.0344 30.8954 20.0203 30.9117Q20.0061 30.9279 20.0061 30.9548Q20.0061 30.9794 20.0189 30.9961Q20.0316 31.0128 20.0534 31.0211Q20.0752 31.0295 20.104 31.0295Z M20.7017 31.305Q20.6418 31.305 20.5978 31.2897Q20.5537 31.2744 20.5252 31.2489Q20.4966 31.2234 20.4818 31.1923L20.5671 31.152Q20.5764 31.1668 20.592 31.1833Q20.6075 31.1997 20.6339 31.2113Q20.6604 31.2229 20.7017 31.2229Q20.761 31.2229 20.7979 31.1949Q20.8348 31.1668 20.8348 31.107V31.0058H20.826Q20.8167 31.023 20.8002 31.0429Q20.7838 31.0629 20.7543 31.0775Q20.7249 31.0921 20.6776 31.0921Q20.6163 31.0921 20.5674 31.0634Q20.5184 31.0346 20.4897 30.978Q20.4609 30.9214 20.4609 30.8388Q20.4609 30.7563 20.4895 30.6971Q20.518 30.638 20.5674 30.6064Q20.6168 30.5749 20.6789 30.5749Q20.7267 30.5749 20.7566 30.5907Q20.7866 30.6064 20.8035 30.628Q20.8204 30.6496 20.8292 30.6658H20.8367V30.5814H20.9364V31.1074Q20.9364 31.1756 20.9055 31.2194Q20.8747 31.2633 20.8216 31.2842Q20.7685 31.305 20.7017 31.305ZM20.7012 31.0072Q20.7448 31.0072 20.7747 30.987Q20.8046 30.9669 20.82 30.9286Q20.8353 30.8903 20.8353 30.8375Q20.8353 30.785 20.82 30.7456Q20.8046 30.7062 20.7747 30.6839Q20.7448 30.6616 20.7012 30.6616Q20.6562 30.6616 20.6261 30.6851Q20.5959 30.7085 20.5806 30.7482Q20.5653 30.7878 20.5653 30.8375Q20.5653 30.888 20.5806 30.9263Q20.5959 30.9646 20.6263 30.9859Q20.6567 31.0072 20.7012 31.0072Z M21.3068 31.1107Q21.2302 31.1107 21.1746 31.0777Q21.1189 31.0448 21.089 30.985Q21.0591 30.9251 21.0591 30.8444Q21.0591 30.7646 21.0885 30.7039Q21.118 30.6431 21.1718 30.609Q21.2256 30.5749 21.298 30.5749Q21.3425 30.5749 21.3838 30.5895Q21.4251 30.6041 21.458 30.6352Q21.4909 30.6663 21.5102 30.7157Q21.5294 30.7651 21.5294 30.8356V30.8718H21.1161V30.7957H21.477L21.4292 30.8208Q21.4292 30.773 21.4144 30.7366Q21.3996 30.7001 21.3706 30.6797Q21.3416 30.6593 21.298 30.6593Q21.2548 30.6593 21.2242 30.6802Q21.1936 30.7011 21.1776 30.7352Q21.1616 30.7693 21.1616 30.8096V30.8616Q21.1616 30.9149 21.1799 30.9518Q21.1982 30.9887 21.2312 31.0075Q21.2641 31.0262 21.3077 31.0262Q21.3365 31.0262 21.3597 31.0181Q21.3829 31.01 21.3998 30.9935Q21.4167 30.9771 21.4255 30.953L21.5215 30.9757Q21.509 31.0156 21.4796 31.0462Q21.4501 31.0768 21.4063 31.0937Q21.3624 31.1107 21.3068 31.1107Z M21.6401 31.2721 21.6809 31.0007H21.7908L21.7143 31.2721Z M22.2092 31.1V30.4088H22.315V31.0091H22.6281V31.1Z M22.7559 31.1V30.4088H22.8616V31.0091H23.1747V31.1Z M23.5627 31.1093Q23.4732 31.1093 23.4027 31.0668Q23.3322 31.0244 23.2919 30.9448Q23.2515 30.8653 23.2515 30.7549Q23.2515 30.644 23.2919 30.5645Q23.3322 30.4849 23.4027 30.4422Q23.4732 30.3996 23.5627 30.3996Q23.6175 30.3996 23.6655 30.4153Q23.7135 30.4311 23.7513 30.4613Q23.7891 30.4914 23.8139 30.5345Q23.8387 30.5777 23.8476 30.6324H23.7413Q23.7348 30.5995 23.7184 30.5742Q23.7019 30.5489 23.6783 30.5313Q23.6546 30.5137 23.6254 30.5049Q23.5961 30.496 23.5637 30.496Q23.5043 30.496 23.4572 30.526Q23.4101 30.5559 23.3832 30.6136Q23.3563 30.6714 23.3563 30.7549Q23.3563 30.8384 23.3837 30.8961Q23.4111 30.9539 23.4579 30.9833Q23.5048 31.0128 23.5637 31.0128Q23.5961 31.0128 23.6251 31.0037Q23.6541 30.9947 23.678 30.9773Q23.7019 30.9599 23.7184 30.9344Q23.7348 30.9089 23.7413 30.8764H23.848Q23.8401 30.9274 23.816 30.9699Q23.7919 31.0123 23.7543 31.0439Q23.7168 31.0754 23.6683 31.0923Q23.6198 31.1093 23.5627 31.1093Z M25.2957 31.1V30.4088H25.4177L25.6779 30.8203Q25.6909 30.8407 25.7072 30.869Q25.7234 30.8973 25.7415 30.9328Q25.7596 30.9683 25.7772 31.01H25.7642Q25.76 30.9706 25.7579 30.9318Q25.7559 30.8931 25.7549 30.8593Q25.754 30.8254 25.754 30.8022V30.4088H25.8612V31.1H25.7387L25.5054 30.7322Q25.4868 30.702 25.469 30.6714Q25.4511 30.6408 25.4295 30.6006Q25.408 30.5605 25.3769 30.503H25.3936Q25.3959 30.554 25.3982 30.5983Q25.4005 30.6426 25.4017 30.6767Q25.4029 30.7108 25.4029 30.7312V31.1Z M26.0237 31.1V30.4088H26.1796L26.3303 30.8054Q26.3368 30.8231 26.345 30.85Q26.3531 30.8769 26.3619 30.9084Q26.3707 30.94 26.3786 30.9706Q26.3865 31.0012 26.3925 31.0258H26.3702Q26.3763 31.0026 26.3842 30.9722Q26.392 30.9418 26.4009 30.9103Q26.4097 30.8787 26.418 30.8509Q26.4264 30.8231 26.4329 30.8054L26.5813 30.4088H26.7381V31.1H26.6328V30.728Q26.6328 30.7066 26.6333 30.677Q26.6337 30.6473 26.6344 30.6141Q26.6351 30.5809 26.6358 30.5471Q26.6365 30.5132 26.637 30.4821H26.6448Q26.6356 30.516 26.6247 30.5519Q26.6138 30.5879 26.6033 30.6213Q26.5929 30.6547 26.5834 30.6823Q26.5739 30.7099 26.5674 30.728L26.4259 31.1H26.3354L26.1921 30.728Q26.1852 30.7104 26.1761 30.6832Q26.1671 30.6561 26.1564 30.6229Q26.1457 30.5897 26.1346 30.5538Q26.1235 30.5178 26.1123 30.4821H26.1216Q26.1225 30.5104 26.1232 30.5436Q26.1239 30.5768 26.1246 30.6106Q26.1253 30.6445 26.126 30.6749Q26.1267 30.7052 26.1267 30.728V31.1Z M26.9002 31.1V30.4088H27.006V31.0091H27.3191V31.1Z M27.6788 31.1116Q27.6013 31.1116 27.5443 31.087Q27.4872 31.0624 27.455 31.0167Q27.4227 30.971 27.4195 30.908H27.5257Q27.529 30.9455 27.5501 30.9701Q27.5712 30.9947 27.605 31.0068Q27.6389 31.0188 27.6783 31.0188Q27.7224 31.0188 27.7565 31.0051Q27.7906 30.9915 27.8105 30.9662Q27.8305 30.9409 27.8305 30.9075Q27.8305 30.8773 27.8131 30.8581Q27.7957 30.8388 27.7662 30.8261Q27.7368 30.8133 27.6992 30.8036L27.6185 30.7813Q27.5336 30.7586 27.4861 30.7141Q27.4385 30.6695 27.4385 30.5986Q27.4385 30.5387 27.4707 30.494Q27.503 30.4492 27.5584 30.4244Q27.6138 30.3996 27.6834 30.3996Q27.7544 30.3996 27.8084 30.4244Q27.8625 30.4492 27.8933 30.4923Q27.9242 30.5355 27.9256 30.5907H27.8226Q27.8175 30.5434 27.7788 30.5174Q27.74 30.4914 27.6811 30.4914Q27.6394 30.4914 27.6085 30.5044Q27.5777 30.5174 27.5607 30.5403Q27.5438 30.5633 27.5438 30.5925Q27.5438 30.6255 27.564 30.6456Q27.5842 30.6658 27.6132 30.6776Q27.6421 30.6895 27.6686 30.6964L27.7358 30.7141Q27.7688 30.7224 27.8038 30.7366Q27.8388 30.7507 27.8685 30.7732Q27.8982 30.7957 27.9165 30.8289Q27.9348 30.862 27.9348 30.9089Q27.9348 30.9673 27.9047 31.0133Q27.8745 31.0592 27.8173 31.0854Q27.76 31.1116 27.6788 31.1116Z M28.5828 31.1 28.697 30.4088H28.7786L28.6654 31.1ZM28.2702 30.9154 28.2841 30.8337H28.8083L28.7948 30.9154ZM28.3407 31.1 28.4539 30.4088H28.5355L28.4224 31.1ZM28.3106 30.6756 28.3245 30.5935H28.8482L28.8352 30.6756Z M28.9393 31.1V31.0235L29.174 30.7809Q29.2102 30.7428 29.2343 30.7136Q29.2585 30.6844 29.271 30.6575Q29.2835 30.6306 29.2835 30.6Q29.2835 30.5652 29.2675 30.5401Q29.2515 30.5151 29.2239 30.5016Q29.1963 30.4882 29.1611 30.4882Q29.1244 30.4882 29.097 30.5032Q29.0697 30.5183 29.0548 30.5457Q29.04 30.573 29.04 30.6102H28.9384Q28.9384 30.5471 28.9676 30.4995Q28.9968 30.452 29.0474 30.4258Q29.098 30.3996 29.1629 30.3996Q29.2288 30.3996 29.2786 30.4255Q29.3285 30.4515 29.3568 30.4958Q29.3851 30.5401 29.3851 30.5962Q29.3851 30.6343 29.371 30.6705Q29.3568 30.7066 29.3213 30.7521Q29.2858 30.7976 29.2214 30.8625L29.0859 31.004V31.0095H29.3958V31.1Z M29.5055 30.9655V30.8801L29.8033 30.4088H29.871V30.5345H29.8279L29.6159 30.8699V30.8755H30.025V30.9655ZM29.8325 31.1V30.94L29.8334 30.9005V30.4088H29.9341V31.1Z M30.3838 31.1093Q30.3137 31.1093 30.2592 31.0852Q30.2047 31.061 30.173 31.0184Q30.1412 30.9757 30.1393 30.9191H30.2465Q30.2488 30.9497 30.2671 30.972Q30.2854 30.9942 30.3156 31.0063Q30.3457 31.0184 30.3829 31.0184Q30.4237 31.0184 30.4548 31.0044Q30.4858 30.9905 30.5037 30.9652Q30.5216 30.94 30.5216 30.9066Q30.5216 30.8718 30.5039 30.8456Q30.4863 30.8194 30.4529 30.8045Q30.4195 30.7897 30.3717 30.7897H30.3128V30.7034H30.3717Q30.4098 30.7034 30.439 30.6897Q30.4682 30.676 30.4844 30.6514Q30.5007 30.6269 30.5007 30.5939Q30.5007 30.5619 30.4863 30.5383Q30.4719 30.5146 30.4459 30.5014Q30.42 30.4882 30.3847 30.4882Q30.3513 30.4882 30.3223 30.5005Q30.2933 30.5127 30.2752 30.535Q30.2571 30.5573 30.2558 30.5888H30.1537Q30.1556 30.5327 30.1869 30.49Q30.2182 30.4473 30.2704 30.4234Q30.3226 30.3996 30.3866 30.3996Q30.4529 30.3996 30.5018 30.4255Q30.5508 30.4515 30.5772 30.4944Q30.6037 30.5373 30.6037 30.5879Q30.6037 30.6463 30.5712 30.6865Q30.5387 30.7266 30.4844 30.741V30.7461Q30.5304 30.753 30.5628 30.7755Q30.5953 30.798 30.612 30.8323Q30.6287 30.8667 30.6287 30.9103Q30.6287 30.9673 30.5972 31.0123Q30.5656 31.0573 30.5102 31.0833Q30.4548 31.1093 30.3838 31.1093Z M30.7574 31.1V31.0235L30.9921 30.7809Q31.0283 30.7428 31.0524 30.7136Q31.0766 30.6844 31.0891 30.6575Q31.1016 30.6306 31.1016 30.6Q31.1016 30.5652 31.0856 30.5401Q31.0696 30.5151 31.042 30.5016Q31.0144 30.4882 30.9791 30.4882Q30.9425 30.4882 30.9151 30.5032Q30.8878 30.5183 30.8729 30.5457Q30.8581 30.573 30.8581 30.6102H30.7565Q30.7565 30.5471 30.7857 30.4995Q30.8149 30.452 30.8655 30.4258Q30.9161 30.3996 30.981 30.3996Q31.0469 30.3996 31.0967 30.4255Q31.1466 30.4515 31.1749 30.4958Q31.2032 30.5401 31.2032 30.5962Q31.2032 30.6343 31.189 30.6705Q31.1749 30.7066 31.1394 30.7521Q31.1039 30.7976 31.0395 30.8625L30.904 31.004V31.0095H31.2139V31.1Z M31.3746 31.1 31.6752 30.5049V30.4993H31.3273V30.4088H31.786V30.503L31.4855 31.1Z M31.9045 31.1V31.0235L32.1393 30.7809Q32.1754 30.7428 32.1996 30.7136Q32.2237 30.6844 32.2362 30.6575Q32.2487 30.6306 32.2487 30.6Q32.2487 30.5652 32.2327 30.5401Q32.2167 30.5151 32.1891 30.5016Q32.1615 30.4882 32.1263 30.4882Q32.0896 30.4882 32.0623 30.5032Q32.0349 30.5183 32.02 30.5457Q32.0052 30.573 32.0052 30.6102H31.9036Q31.9036 30.5471 31.9328 30.4995Q31.9621 30.452 32.0126 30.4258Q32.0632 30.3996 32.1281 30.3996Q32.194 30.3996 32.2439 30.4255Q32.2937 30.4515 32.322 30.4958Q32.3503 30.5401 32.3503 30.5962Q32.3503 30.6343 32.3362 30.6705Q32.322 30.7066 32.2865 30.7521Q32.2511 30.7976 32.1866 30.8625L32.0511 31.004V31.0095H32.361V31.1Z M32.7175 31.1097Q32.6553 31.1097 32.6073 31.0854Q32.5593 31.061 32.5291 31.0177Q32.499 30.9743 32.4911 30.9186H32.5959Q32.6057 30.9618 32.6365 30.9894Q32.6674 31.017 32.7175 31.017Q32.768 31.017 32.8037 30.9873Q32.8395 30.9576 32.8585 30.9017Q32.8775 30.8458 32.8775 30.7674H32.8724Q32.8548 30.7962 32.8288 30.817Q32.8028 30.8379 32.7703 30.8495Q32.7379 30.8611 32.7012 30.8611Q32.6409 30.8611 32.5918 30.8319Q32.5426 30.8027 32.5138 30.7512Q32.4851 30.6997 32.4851 30.6343Q32.4851 30.5679 32.5152 30.5144Q32.5454 30.4608 32.5999 30.4295Q32.6544 30.3982 32.7272 30.3991Q32.7731 30.3996 32.8179 30.4163Q32.8627 30.433 32.8991 30.4703Q32.9355 30.5076 32.9573 30.5714Q32.9791 30.6352 32.9791 30.7308Q32.9791 30.8208 32.9608 30.8913Q32.9424 30.9618 32.9083 31.0105Q32.8743 31.0592 32.826 31.0845Q32.7778 31.1097 32.7175 31.1097ZM32.724 30.7753Q32.7536 30.7753 32.7792 30.7637Q32.8047 30.7521 32.8237 30.7319Q32.8427 30.7117 32.8536 30.686Q32.8645 30.6603 32.8645 30.631Q32.8645 30.5935 32.8464 30.561Q32.8283 30.5285 32.7972 30.5086Q32.7662 30.4886 32.7263 30.4886Q32.6873 30.4886 32.656 30.5079Q32.6247 30.5271 32.6066 30.5598Q32.5885 30.5925 32.5885 30.6324Q32.5885 30.6723 32.6061 30.7046Q32.6238 30.7368 32.6544 30.756Q32.685 30.7753 32.724 30.7753Z M34.6466 31.1107Q34.5701 31.1107 34.5144 31.0777Q34.4588 31.0448 34.4288 30.985Q34.3989 30.9251 34.3989 30.8444Q34.3989 30.7646 34.4284 30.7039Q34.4578 30.6431 34.5116 30.609Q34.5655 30.5749 34.6378 30.5749Q34.6824 30.5749 34.7236 30.5895Q34.7649 30.6041 34.7979 30.6352Q34.8308 30.6663 34.85 30.7157Q34.8693 30.7651 34.8693 30.8356V30.8718H34.456V30.7957H34.8169L34.7691 30.8208Q34.7691 30.773 34.7542 30.7366Q34.7394 30.7001 34.7104 30.6797Q34.6814 30.6593 34.6378 30.6593Q34.5947 30.6593 34.5641 30.6802Q34.5334 30.7011 34.5174 30.7352Q34.5014 30.7693 34.5014 30.8096V30.8616Q34.5014 30.9149 34.5198 30.9518Q34.5381 30.9887 34.571 31.0075Q34.604 31.0262 34.6476 31.0262Q34.6763 31.0262 34.6995 31.0181Q34.7227 31.01 34.7396 30.9935Q34.7566 30.9771 34.7654 30.953L34.8614 30.9757Q34.8489 31.0156 34.8194 31.0462Q34.79 31.0768 34.7461 31.0937Q34.7023 31.1107 34.6466 31.1107Z M35.1209 31.1 34.9252 30.5814H35.0356L35.1381 30.876Q35.1553 30.9247 35.1673 30.9736Q35.1794 31.0225 35.1928 31.0708H35.1622Q35.1752 31.0225 35.1873 30.9736Q35.1993 30.9247 35.216 30.876L35.3185 30.5814H35.428L35.2323 31.1Z M35.7279 31.1107Q35.6551 31.1107 35.6006 31.0773Q35.5461 31.0439 35.5159 30.9836Q35.4857 30.9233 35.4857 30.8435Q35.4857 30.7628 35.5159 30.7022Q35.5461 30.6417 35.6006 30.6083Q35.6551 30.5749 35.7279 30.5749Q35.8012 30.5749 35.8557 30.6083Q35.9102 30.6417 35.9403 30.7022Q35.9705 30.7628 35.9705 30.8435Q35.9705 30.9233 35.9403 30.9836Q35.9102 31.0439 35.8557 31.0773Q35.8012 31.1107 35.7279 31.1107ZM35.7279 31.0244Q35.7752 31.0244 35.806 30.9996Q35.8369 30.9748 35.852 30.9337Q35.867 30.8927 35.867 30.8435Q35.867 30.7938 35.852 30.7523Q35.8369 30.7108 35.806 30.686Q35.7752 30.6612 35.7279 30.6612Q35.681 30.6612 35.6504 30.686Q35.6198 30.7108 35.6047 30.7521Q35.5897 30.7934 35.5897 30.8435Q35.5897 30.8927 35.6047 30.9337Q35.6198 30.9748 35.6504 30.9996Q35.681 31.0244 35.7279 31.0244Z M36.1952 30.4088V31.1H36.0932V30.4088Z M36.5188 31.1065Q36.4659 31.1065 36.426 31.0842Q36.3861 31.062 36.3641 31.0184Q36.342 30.9748 36.342 30.9107V30.5814H36.4441V30.8982Q36.4441 30.9543 36.4735 30.9859Q36.503 31.0174 36.5536 31.0174Q36.5883 31.0174 36.6155 31.0024Q36.6426 30.9873 36.6584 30.9583Q36.6742 30.9293 36.6742 30.8885V30.5814H36.7762V31.1H36.6788L36.6783 30.9729H36.6881Q36.6653 31.0434 36.6217 31.075Q36.5781 31.1065 36.5188 31.1065Z M37.1447 30.5814V30.6644H36.8636V30.5814ZM36.9392 30.458H37.0413V30.9599Q37.0413 30.991 37.0545 31.0056Q37.0677 31.0202 37.0979 31.0202Q37.1058 31.0202 37.1188 31.0184Q37.1318 31.0165 37.141 31.0146L37.1591 31.0963Q37.1429 31.1019 37.1243 31.1044Q37.1058 31.107 37.0877 31.107Q37.0172 31.107 36.9782 31.0705Q36.9392 31.0341 36.9392 30.9683Z M37.2558 31.1V30.5814H37.3579V31.1ZM37.3073 30.5021Q37.2809 30.5021 37.2621 30.4844Q37.2433 30.4668 37.2433 30.4418Q37.2433 30.4163 37.2621 30.3986Q37.2809 30.381 37.3073 30.381Q37.3338 30.381 37.3528 30.3986Q37.3718 30.4163 37.3718 30.4418Q37.3718 30.4668 37.3528 30.4844Q37.3338 30.5021 37.3073 30.5021Z M37.7227 31.1107Q37.6499 31.1107 37.5954 31.0773Q37.5409 31.0439 37.5107 30.9836Q37.4806 30.9233 37.4806 30.8435Q37.4806 30.7628 37.5107 30.7022Q37.5409 30.6417 37.5954 30.6083Q37.6499 30.5749 37.7227 30.5749Q37.796 30.5749 37.8505 30.6083Q37.905 30.6417 37.9352 30.7022Q37.9653 30.7628 37.9653 30.8435Q37.9653 30.9233 37.9352 30.9836Q37.905 31.0439 37.8505 31.0773Q37.796 31.1107 37.7227 31.1107ZM37.7227 31.0244Q37.77 31.0244 37.8009 30.9996Q37.8317 30.9748 37.8468 30.9337Q37.8619 30.8927 37.8619 30.8435Q37.8619 30.7938 37.8468 30.7523Q37.8317 30.7108 37.8009 30.686Q37.77 30.6612 37.7227 30.6612Q37.6759 30.6612 37.6452 30.686Q37.6146 30.7108 37.5995 30.7521Q37.5845 30.7934 37.5845 30.8435Q37.5845 30.8927 37.5995 30.9337Q37.6146 30.9748 37.6452 30.9996Q37.6759 31.0244 37.7227 31.0244Z M38.19 30.7929V31.1H38.088V30.5814H38.1854L38.1863 30.7085H38.1757Q38.1984 30.6389 38.2415 30.6069Q38.2847 30.5749 38.3459 30.5749Q38.3988 30.5749 38.4382 30.5972Q38.4776 30.6194 38.4999 30.6628Q38.5222 30.7062 38.5222 30.7707V31.1H38.4201V30.7832Q38.4201 30.7271 38.3909 30.6955Q38.3617 30.664 38.3106 30.664Q38.2763 30.664 38.249 30.679Q38.2216 30.6941 38.2058 30.7229Q38.19 30.7516 38.19 30.7929Z M38.669 31.1V30.5814H38.7659L38.7687 30.7015H38.7608Q38.772 30.6575 38.7951 30.6292Q38.8183 30.6009 38.8494 30.5867Q38.8805 30.5726 38.9144 30.5726Q38.971 30.5726 39.0057 30.6076Q39.0405 30.6426 39.0526 30.7052H39.0396Q39.0498 30.6626 39.0749 30.6329Q39.0999 30.6032 39.1354 30.5879Q39.1709 30.5726 39.2112 30.5726Q39.2572 30.5726 39.2945 30.5925Q39.3318 30.6125 39.3536 30.6519Q39.3754 30.6913 39.3754 30.7502V31.1H39.2734V30.7604Q39.2734 30.7085 39.2444 30.6853Q39.2154 30.6621 39.176 30.6621Q39.144 30.6621 39.1208 30.6756Q39.0976 30.689 39.0851 30.7129Q39.0725 30.7368 39.0725 30.7679V31.1H38.9719V30.754Q38.9719 30.7122 38.9452 30.6872Q38.9185 30.6621 38.8772 30.6621Q38.849 30.6621 38.8246 30.6753Q38.8002 30.6885 38.7856 30.7143Q38.771 30.74 38.771 30.7776V31.1Z M39.7403 31.1107Q39.6674 31.1107 39.6129 31.0773Q39.5584 31.0439 39.5283 30.9836Q39.4981 30.9233 39.4981 30.8435Q39.4981 30.7628 39.5283 30.7022Q39.5584 30.6417 39.6129 30.6083Q39.6674 30.5749 39.7403 30.5749Q39.8136 30.5749 39.8681 30.6083Q39.9226 30.6417 39.9527 30.7022Q39.9829 30.7628 39.9829 30.8435Q39.9829 30.9233 39.9527 30.9836Q39.9226 31.0439 39.8681 31.0773Q39.8136 31.1107 39.7403 31.1107ZM39.7403 31.0244Q39.7876 31.0244 39.8184 30.9996Q39.8493 30.9748 39.8643 30.9337Q39.8794 30.8927 39.8794 30.8435Q39.8794 30.7938 39.8643 30.7523Q39.8493 30.7108 39.8184 30.686Q39.7876 30.6612 39.7403 30.6612Q39.6934 30.6612 39.6628 30.686Q39.6322 30.7108 39.6171 30.7521Q39.602 30.7934 39.602 30.8435Q39.602 30.8927 39.6171 30.9337Q39.6322 30.9748 39.6628 30.9996Q39.6934 31.0244 39.7403 31.0244Z M40.1056 31.1V30.5814H40.2044V30.6649H40.2099Q40.2243 30.6222 40.26 30.5981Q40.2957 30.574 40.3412 30.574Q40.3509 30.574 40.3635 30.5747Q40.376 30.5754 40.3843 30.5768V30.6742Q40.3788 30.6723 40.363 30.6705Q40.3472 30.6686 40.331 30.6686Q40.2957 30.6686 40.2674 30.6834Q40.2391 30.6983 40.2234 30.7245Q40.2076 30.7507 40.2076 30.785V31.1Z M40.7204 30.5814V30.6644H40.4393V30.5814ZM40.5149 30.458H40.617V30.9599Q40.617 30.991 40.6302 31.0056Q40.6434 31.0202 40.6735 31.0202Q40.6814 31.0202 40.6944 31.0184Q40.7074 31.0165 40.7167 31.0146L40.7348 31.0963Q40.7185 31.1019 40.7 31.1044Q40.6814 31.107 40.6633 31.107Q40.5928 31.107 40.5539 31.0705Q40.5149 31.0341 40.5149 30.9683Z M41.0388 31.305Q40.979 31.305 40.9349 31.2897Q40.8909 31.2744 40.8623 31.2489Q40.8338 31.2234 40.819 31.1923L40.9043 31.152Q40.9136 31.1668 40.9291 31.1833Q40.9447 31.1997 40.9711 31.2113Q40.9975 31.2229 41.0388 31.2229Q41.0982 31.2229 41.1351 31.1949Q41.172 31.1668 41.172 31.107V31.0058H41.1631Q41.1539 31.023 41.1374 31.0429Q41.1209 31.0629 41.0915 31.0775Q41.062 31.0921 41.0147 31.0921Q40.9535 31.0921 40.9045 31.0634Q40.8556 31.0346 40.8268 30.978Q40.7981 30.9214 40.7981 30.8388Q40.7981 30.7563 40.8266 30.6971Q40.8551 30.638 40.9045 30.6064Q40.9539 30.5749 41.0161 30.5749Q41.0639 30.5749 41.0938 30.5907Q41.1237 30.6064 41.1407 30.628Q41.1576 30.6496 41.1664 30.6658H41.1738V30.5814H41.2736V31.1074Q41.2736 31.1756 41.2427 31.2194Q41.2119 31.2633 41.1587 31.2842Q41.1056 31.305 41.0388 31.305ZM41.0384 31.0072Q41.082 31.0072 41.1119 30.987Q41.1418 30.9669 41.1571 30.9286Q41.1724 30.8903 41.1724 30.8375Q41.1724 30.785 41.1571 30.7456Q41.1418 30.7062 41.1119 30.6839Q41.082 30.6616 41.0384 30.6616Q40.9934 30.6616 40.9632 30.6851Q40.9331 30.7085 40.9178 30.7482Q40.9025 30.7878 40.9025 30.8375Q40.9025 30.888 40.9178 30.9263Q40.9331 30.9646 40.9635 30.9859Q40.9938 31.0072 41.0384 31.0072Z M41.5655 31.1116Q41.5164 31.1116 41.4765 31.0933Q41.4366 31.075 41.4134 31.0397Q41.3902 31.0044 41.3902 30.9534Q41.3902 30.9094 41.4071 30.8811Q41.4241 30.8528 41.4531 30.8361Q41.482 30.8194 41.5175 30.811Q41.553 30.8027 41.5897 30.7985Q41.6356 30.7929 41.6643 30.7894Q41.6931 30.786 41.7068 30.7778Q41.7205 30.7697 41.7205 30.7516V30.7489Q41.7205 30.7196 41.7093 30.6997Q41.6982 30.6797 41.6762 30.6688Q41.6541 30.6579 41.6212 30.6579Q41.5873 30.6579 41.563 30.6684Q41.5386 30.6788 41.5236 30.695Q41.5085 30.7113 41.5011 30.7289L41.405 30.7039Q41.4227 30.6575 41.4556 30.6292Q41.4885 30.6009 41.5312 30.5879Q41.5739 30.5749 41.6194 30.5749Q41.6509 30.5749 41.6862 30.5823Q41.7214 30.5897 41.7525 30.6092Q41.7836 30.6287 41.803 30.664Q41.8225 30.6992 41.8225 30.7558V31.1H41.7237V31.029H41.7186Q41.7084 31.049 41.6885 31.068Q41.6685 31.087 41.6381 31.0993Q41.6078 31.1116 41.5655 31.1116ZM41.5883 31.0295Q41.63 31.0295 41.6597 31.0133Q41.6894 30.997 41.7052 30.9701Q41.7209 30.9432 41.7209 30.9131V30.8467Q41.7154 30.8523 41.6998 30.8567Q41.6843 30.8611 41.6643 30.8646Q41.6444 30.8681 41.6258 30.8704Q41.6073 30.8727 41.5952 30.8741Q41.5665 30.8778 41.5426 30.8866Q41.5187 30.8954 41.5045 30.9117Q41.4904 30.9279 41.4904 30.9548Q41.4904 30.9794 41.5032 30.9961Q41.5159 31.0128 41.5377 31.0211Q41.5595 31.0295 41.5883 31.0295Z M42.186 31.305Q42.1261 31.305 42.0821 31.2897Q42.038 31.2744 42.0095 31.2489Q41.9809 31.2234 41.9661 31.1923L42.0514 31.152Q42.0607 31.1668 42.0763 31.1833Q42.0918 31.1997 42.1182 31.2113Q42.1447 31.2229 42.186 31.2229Q42.2453 31.2229 42.2822 31.1949Q42.3191 31.1668 42.3191 31.107V31.0058H42.3103Q42.301 31.023 42.2845 31.0429Q42.2681 31.0629 42.2386 31.0775Q42.2092 31.0921 42.1618 31.0921Q42.1006 31.0921 42.0517 31.0634Q42.0027 31.0346 41.974 30.978Q41.9452 30.9214 41.9452 30.8388Q41.9452 30.7563 41.9737 30.6971Q42.0023 30.638 42.0517 30.6064Q42.1011 30.5749 42.1632 30.5749Q42.211 30.5749 42.2409 30.5907Q42.2708 30.6064 42.2878 30.628Q42.3047 30.6496 42.3135 30.6658H42.3209V30.5814H42.4207V31.1074Q42.4207 31.1756 42.3898 31.2194Q42.359 31.2633 42.3059 31.2842Q42.2528 31.305 42.186 31.305ZM42.1855 31.0072Q42.2291 31.0072 42.259 30.987Q42.2889 30.9669 42.3042 30.9286Q42.3196 30.8903 42.3196 30.8375Q42.3196 30.785 42.3042 30.7456Q42.2889 30.7062 42.259 30.6839Q42.2291 30.6616 42.1855 30.6616Q42.1405 30.6616 42.1103 30.6851Q42.0802 30.7085 42.0649 30.7482Q42.0496 30.7878 42.0496 30.8375Q42.0496 30.888 42.0649 30.9263Q42.0802 30.9646 42.1106 30.9859Q42.141 31.0072 42.1855 31.0072Z M42.7911 31.1107Q42.7145 31.1107 42.6589 31.0777Q42.6032 31.0448 42.5733 30.985Q42.5434 30.9251 42.5434 30.8444Q42.5434 30.7646 42.5728 30.7039Q42.6023 30.6431 42.6561 30.609Q42.7099 30.5749 42.7823 30.5749Q42.8268 30.5749 42.8681 30.5895Q42.9094 30.6041 42.9423 30.6352Q42.9752 30.6663 42.9945 30.7157Q43.0137 30.7651 43.0137 30.8356V30.8718H42.6004V30.7957H42.9613L42.9135 30.8208Q42.9135 30.773 42.8987 30.7366Q42.8838 30.7001 42.8548 30.6797Q42.8259 30.6593 42.7823 30.6593Q42.7391 30.6593 42.7085 30.6802Q42.6779 30.7011 42.6619 30.7352Q42.6459 30.7693 42.6459 30.8096V30.8616Q42.6459 30.9149 42.6642 30.9518Q42.6825 30.9887 42.7155 31.0075Q42.7484 31.0262 42.792 31.0262Q42.8208 31.0262 42.8439 31.0181Q42.8671 31.01 42.8841 30.9935Q42.901 30.9771 42.9098 30.953L43.0058 30.9757Q42.9933 31.0156 42.9639 31.0462Q42.9344 31.0768 42.8906 31.0937Q42.8467 31.1107 42.7911 31.1107Z M43.2106 31.107Q43.1819 31.107 43.1619 31.087Q43.142 31.0671 43.142 31.0388Q43.142 31.01 43.1619 30.9903Q43.1819 30.9706 43.2106 30.9706Q43.2389 30.9706 43.2589 30.9903Q43.2788 31.01 43.2788 31.0388Q43.2788 31.0671 43.2589 31.087Q43.2389 31.107 43.2106 31.107Z M43.6506 31.1107Q43.5773 31.1107 43.523 31.0773Q43.4688 31.0439 43.4386 30.9836Q43.4085 30.9233 43.4085 30.8435Q43.4085 30.7628 43.4386 30.7022Q43.4688 30.6417 43.523 30.6083Q43.5773 30.5749 43.6506 30.5749Q43.6909 30.5749 43.7262 30.5853Q43.7615 30.5958 43.79 30.6155Q43.8185 30.6352 43.8382 30.6637Q43.8579 30.6923 43.8677 30.728L43.7707 30.7512Q43.7656 30.7312 43.755 30.7148Q43.7443 30.6983 43.7292 30.6862Q43.7141 30.6742 43.6944 30.6677Q43.6747 30.6612 43.6511 30.6612Q43.6042 30.6612 43.5734 30.686Q43.5425 30.7108 43.5274 30.7521Q43.5124 30.7934 43.5124 30.8435Q43.5124 30.8931 43.5274 30.9342Q43.5425 30.9752 43.5734 30.9998Q43.6042 31.0244 43.6511 31.0244Q43.6752 31.0244 43.6951 31.0177Q43.7151 31.0109 43.7308 30.9986Q43.7466 30.9864 43.7573 30.969Q43.7679 30.9516 43.7726 30.9307L43.8691 30.9539Q43.8598 30.9905 43.8398 31.0195Q43.8199 31.0485 43.7914 31.0689Q43.7628 31.0893 43.7271 31.1Q43.6914 31.1107 43.6506 31.1107Z M44.2084 31.1107Q44.1356 31.1107 44.0811 31.0773Q44.0265 31.0439 43.9964 30.9836Q43.9662 30.9233 43.9662 30.8435Q43.9662 30.7628 43.9964 30.7022Q44.0265 30.6417 44.0811 30.6083Q44.1356 30.5749 44.2084 30.5749Q44.2817 30.5749 44.3362 30.6083Q44.3907 30.6417 44.4208 30.7022Q44.451 30.7628 44.451 30.8435Q44.451 30.9233 44.4208 30.9836Q44.3907 31.0439 44.3362 31.0773Q44.2817 31.1107 44.2084 31.1107ZM44.2084 31.0244Q44.2557 31.0244 44.2865 30.9996Q44.3174 30.9748 44.3325 30.9337Q44.3475 30.8927 44.3475 30.8435Q44.3475 30.7938 44.3325 30.7523Q44.3174 30.7108 44.2865 30.686Q44.2557 30.6612 44.2084 30.6612Q44.1615 30.6612 44.1309 30.686Q44.1003 30.7108 44.0852 30.7521Q44.0701 30.7934 44.0701 30.8435Q44.0701 30.8927 44.0852 30.9337Q44.1003 30.9748 44.1309 30.9996Q44.1615 31.0244 44.2084 31.0244Z M44.5737 31.1V30.5814H44.6706L44.6734 30.7015H44.6655Q44.6766 30.6575 44.6998 30.6292Q44.723 30.6009 44.7541 30.5867Q44.7852 30.5726 44.8191 30.5726Q44.8756 30.5726 44.9104 30.6076Q44.9452 30.6426 44.9573 30.7052H44.9443Q44.9545 30.6626 44.9796 30.6329Q45.0046 30.6032 45.0401 30.5879Q45.0756 30.5726 45.1159 30.5726Q45.1619 30.5726 45.1992 30.5925Q45.2365 30.6125 45.2583 30.6519Q45.2801 30.6913 45.2801 30.7502V31.1H45.1781V30.7604Q45.1781 30.7085 45.1491 30.6853Q45.1201 30.6621 45.0807 30.6621Q45.0487 30.6621 45.0255 30.6756Q45.0023 30.689 44.9898 30.7129Q44.9772 30.7368 44.9772 30.7679V31.1H44.8766V30.754Q44.8766 30.7122 44.8499 30.6872Q44.8232 30.6621 44.7819 30.6621Q44.7536 30.6621 44.7293 30.6753Q44.7049 30.6885 44.6903 30.7143Q44.6757 30.74 44.6757 30.7776V31.1Z" fill="#FFFFFF" opacity="0.9"/>
<circle cx="24.548" cy="30.841" r="0.075" fill="#21A0DE"/>
<circle cx="33.683" cy="30.841" r="0.075" fill="#21A0DE"/>
<g transform="translate(46.4488,29.8407)" fill="#FFFFFF"><path d="M0.3800,0.6200 L1.0000,0.1000 L1.6200,0.6200 L1.6200,1.1700 L0.3800,1.1700 Z" fill="none" stroke="#FFFFFF" stroke-width="0.1240" stroke-linejoin="miter" stroke-miterlimit="6"/><rect x="0.7100" y="0.6700" width="0.5800" height="0.1240"/><rect x="0.7100" y="0.8900" width="0.5800" height="0.1240"/><path d="M-0.1409 1.55V1.3536H-0.0095V1.3869H-0.1007V1.4344H-0.0164V1.4672H-0.1007V1.5166H-0.0092V1.55Z M0.1023 1.4825H0.1367L0.1549 1.5058L0.1711 1.5248L0.2039 1.5663H0.1664L0.1439 1.5384L0.133 1.5228ZM0.1147 1.5526Q0.0887 1.5526 0.0679 1.5408Q0.0472 1.5289 0.0351 1.5064Q0.0231 1.4838 0.0231 1.4519Q0.0231 1.4199 0.0351 1.3973Q0.0472 1.3747 0.0679 1.3628Q0.0887 1.3509 0.1147 1.3509Q0.1408 1.3509 0.1615 1.3628Q0.1822 1.3747 0.1942 1.3973Q0.2063 1.4199 0.2063 1.4519Q0.2063 1.4838 0.1942 1.5064Q0.1822 1.5289 0.1615 1.5408Q0.1408 1.5526 0.1147 1.5526ZM0.1147 1.5169Q0.13 1.5169 0.1414 1.5095Q0.1528 1.502 0.1591 1.4874Q0.1654 1.4729 0.1654 1.4519Q0.1654 1.4307 0.1591 1.4161Q0.1528 1.4016 0.1414 1.3941Q0.13 1.3867 0.1147 1.3867Q0.0995 1.3867 0.0881 1.3942Q0.0766 1.4017 0.0703 1.4163Q0.0639 1.4308 0.0639 1.4519Q0.0639 1.4729 0.0703 1.4874Q0.0766 1.5019 0.0881 1.5094Q0.0995 1.5169 0.1147 1.5169Z M0.3246 1.5528Q0.3003 1.5528 0.282 1.5437Q0.2638 1.5347 0.2537 1.5186Q0.2436 1.5025 0.2436 1.481V1.3536H0.2838V1.4778Q0.2838 1.4892 0.2889 1.4981Q0.294 1.507 0.3031 1.5121Q0.3123 1.5172 0.3246 1.5172Q0.337 1.5172 0.3461 1.5121Q0.3553 1.507 0.3604 1.4981Q0.3654 1.4892 0.3654 1.4778V1.3536H0.4058V1.481Q0.4058 1.5025 0.3956 1.5186Q0.3855 1.5347 0.3672 1.5437Q0.3489 1.5528 0.3246 1.5528Z M0.43 1.55 0.4971 1.3536H0.5499L0.6187 1.55H0.574L0.5425 1.4552Q0.5368 1.4369 0.5309 1.4151Q0.5251 1.3932 0.5186 1.3674H0.5274Q0.5211 1.3934 0.5157 1.4153Q0.5102 1.4373 0.5048 1.4552L0.4745 1.55ZM0.4719 1.5044V1.4729H0.5768V1.5044Z M0.6483 1.55V1.3536H0.6885V1.5166H0.7733V1.55Z M0.8757 1.55V1.3536H0.916V1.4329H1.0015V1.3536H1.0419V1.55H1.0015V1.4663H0.916V1.55Z M1.1691 1.5526Q1.1431 1.5526 1.1223 1.5408Q1.1016 1.5289 1.0895 1.5064Q1.0774 1.4838 1.0774 1.4519Q1.0774 1.4199 1.0895 1.3973Q1.1016 1.3747 1.1223 1.3628Q1.1431 1.3509 1.1691 1.3509Q1.1952 1.3509 1.2159 1.3628Q1.2366 1.3747 1.2486 1.3973Q1.2607 1.4199 1.2607 1.4519Q1.2607 1.4838 1.2486 1.5064Q1.2366 1.5289 1.2159 1.5408Q1.1952 1.5526 1.1691 1.5526ZM1.1691 1.5169Q1.1844 1.5169 1.1958 1.5095Q1.2072 1.502 1.2135 1.4874Q1.2198 1.4729 1.2198 1.4519Q1.2198 1.4307 1.2135 1.4161Q1.2072 1.4016 1.1958 1.3941Q1.1844 1.3867 1.1691 1.3867Q1.1539 1.3867 1.1424 1.3942Q1.131 1.4017 1.1246 1.4163Q1.1183 1.4308 1.1183 1.4519Q1.1183 1.4729 1.1246 1.4874Q1.131 1.5019 1.1424 1.5094Q1.1539 1.5169 1.1691 1.5169Z M1.3772 1.5528Q1.353 1.5528 1.3347 1.5437Q1.3165 1.5347 1.3064 1.5186Q1.2963 1.5025 1.2963 1.481V1.3536H1.3365V1.4778Q1.3365 1.4892 1.3416 1.4981Q1.3467 1.507 1.3558 1.5121Q1.365 1.5172 1.3772 1.5172Q1.3896 1.5172 1.3988 1.5121Q1.408 1.507 1.413 1.4981Q1.4181 1.4892 1.4181 1.4778V1.3536H1.4584V1.481Q1.4584 1.5025 1.4483 1.5186Q1.4381 1.5347 1.4199 1.5437Q1.4016 1.5528 1.3772 1.5528Z M1.5713 1.5529Q1.5477 1.5529 1.5302 1.5456Q1.5128 1.5384 1.503 1.5242Q1.4932 1.5099 1.4927 1.4891H1.5319Q1.5327 1.499 1.5378 1.5056Q1.543 1.5123 1.5515 1.5156Q1.5601 1.5189 1.5709 1.5189Q1.5817 1.5189 1.5897 1.5158Q1.5977 1.5127 1.6021 1.507Q1.6066 1.5014 1.6066 1.4938Q1.6066 1.4871 1.6026 1.4826Q1.5986 1.478 1.5911 1.4747Q1.5836 1.4714 1.5727 1.4689L1.5511 1.4635Q1.5262 1.4575 1.5121 1.4445Q1.498 1.4315 1.498 1.4101Q1.498 1.3923 1.5076 1.379Q1.5171 1.3657 1.5338 1.3583Q1.5505 1.3509 1.5718 1.3509Q1.5936 1.3509 1.6098 1.3584Q1.626 1.3658 1.6351 1.3791Q1.6442 1.3923 1.6445 1.4096H1.6056Q1.6045 1.3977 1.5955 1.3913Q1.5865 1.3848 1.5714 1.3848Q1.5613 1.3848 1.554 1.3877Q1.5468 1.3906 1.543 1.3958Q1.5393 1.4009 1.5393 1.4075Q1.5393 1.4147 1.5436 1.4195Q1.548 1.4244 1.5552 1.4273Q1.5625 1.4303 1.5706 1.4323L1.5884 1.4366Q1.6008 1.4394 1.6115 1.4441Q1.6222 1.4489 1.6302 1.4558Q1.6383 1.4627 1.6427 1.4722Q1.6471 1.4817 1.6471 1.4941Q1.6471 1.5119 1.6381 1.5251Q1.6292 1.5384 1.6122 1.5456Q1.5952 1.5529 1.5713 1.5529Z M1.7217 1.3536V1.55H1.6815V1.3536Z M1.7627 1.55V1.3536H1.8075L1.8696 1.453Q1.8744 1.4606 1.8793 1.4696Q1.8841 1.4785 1.8892 1.4895Q1.8943 1.5004 1.8993 1.5141H1.8952Q1.8943 1.5032 1.8936 1.4908Q1.8928 1.4784 1.8923 1.4671Q1.8918 1.4557 1.8918 1.4478V1.3536H1.9329V1.55H1.888L1.8315 1.4598Q1.8253 1.4497 1.8201 1.4401Q1.8148 1.4306 1.8091 1.419Q1.8033 1.4075 1.7954 1.3914H1.8005Q1.8013 1.4056 1.8021 1.4187Q1.8029 1.4317 1.8034 1.4424Q1.8038 1.453 1.8038 1.4597V1.55Z M2.0609 1.5526Q2.0334 1.5526 2.0126 1.5404Q1.9918 1.5282 1.9802 1.5056Q1.9685 1.483 1.9685 1.452Q1.9685 1.4201 1.9806 1.3975Q1.9928 1.3749 2.0135 1.3629Q2.0342 1.3509 2.06 1.3509Q2.0766 1.3509 2.0909 1.3557Q2.1052 1.3606 2.1164 1.3694Q2.1275 1.3782 2.1345 1.3903Q2.1416 1.4023 2.1437 1.417H2.1028Q2.1007 1.4099 2.097 1.4043Q2.0932 1.3987 2.0879 1.3947Q2.0825 1.3907 2.0757 1.3887Q2.0688 1.3867 2.0607 1.3867Q2.0455 1.3867 2.0339 1.3942Q2.0223 1.4018 2.0158 1.4163Q2.0094 1.4308 2.0094 1.4517Q2.0094 1.4725 2.0158 1.487Q2.0222 1.5016 2.0338 1.5093Q2.0454 1.5169 2.0612 1.5169Q2.0754 1.5169 2.0856 1.5118Q2.0957 1.5066 2.1012 1.4971Q2.1067 1.4875 2.1067 1.4747L2.1151 1.4759H2.064V1.4453H2.1457V1.4698Q2.1457 1.4957 2.1347 1.5142Q2.1238 1.5327 2.1047 1.5427Q2.0856 1.5526 2.0609 1.5526Z"/><path d="M0.0857 1.8926Q0.0597 1.8926 0.0389 1.8808Q0.0182 1.8689 0.0061 1.8464Q-0.0059 1.8238 -0.0059 1.7919Q-0.0059 1.7599 0.0061 1.7373Q0.0182 1.7147 0.0389 1.7028Q0.0597 1.6909 0.0857 1.6909Q0.1118 1.6909 0.1325 1.7028Q0.1532 1.7147 0.1652 1.7373Q0.1773 1.7599 0.1773 1.7919Q0.1773 1.8238 0.1652 1.8464Q0.1532 1.8689 0.1325 1.8808Q0.1118 1.8926 0.0857 1.8926ZM0.0857 1.8569Q0.101 1.8569 0.1124 1.8495Q0.1238 1.842 0.1301 1.8274Q0.1364 1.8129 0.1364 1.7919Q0.1364 1.7707 0.1301 1.7561Q0.1238 1.7416 0.1124 1.7341Q0.101 1.7267 0.0857 1.7267Q0.0705 1.7267 0.059 1.7342Q0.0476 1.7417 0.0412 1.7563Q0.0349 1.7708 0.0349 1.7919Q0.0349 1.8129 0.0412 1.8274Q0.0476 1.8419 0.059 1.8494Q0.0705 1.8569 0.0857 1.8569Z M0.2129 1.89V1.6936H0.2895Q0.3119 1.6936 0.3276 1.7021Q0.3433 1.7106 0.3515 1.7255Q0.3598 1.7405 0.3598 1.7599Q0.3598 1.7794 0.3514 1.7942Q0.343 1.8091 0.3271 1.8174Q0.3112 1.8258 0.2886 1.8258H0.2393V1.7934H0.2821Q0.2945 1.7934 0.3025 1.7891Q0.3105 1.7848 0.3143 1.7773Q0.3182 1.7698 0.3182 1.7599Q0.3182 1.75 0.3143 1.7425Q0.3105 1.7351 0.3024 1.7309Q0.2944 1.7268 0.282 1.7268H0.2531V1.89Z M0.3932 1.89V1.6936H0.4698Q0.4922 1.6936 0.5079 1.7021Q0.5236 1.7106 0.5319 1.7255Q0.5401 1.7405 0.5401 1.7599Q0.5401 1.7794 0.5317 1.7942Q0.5234 1.8091 0.5075 1.8174Q0.4916 1.8258 0.4689 1.8258H0.4196V1.7934H0.4625Q0.4748 1.7934 0.4828 1.7891Q0.4908 1.7848 0.4947 1.7773Q0.4986 1.7698 0.4986 1.7599Q0.4986 1.75 0.4947 1.7425Q0.4908 1.7351 0.4828 1.7309Q0.4747 1.7268 0.4623 1.7268H0.4335V1.89Z M0.6598 1.8926Q0.6338 1.8926 0.6131 1.8808Q0.5923 1.8689 0.5802 1.8464Q0.5682 1.8238 0.5682 1.7919Q0.5682 1.7599 0.5802 1.7373Q0.5923 1.7147 0.6131 1.7028Q0.6338 1.6909 0.6598 1.6909Q0.6859 1.6909 0.7066 1.7028Q0.7273 1.7147 0.7394 1.7373Q0.7514 1.7599 0.7514 1.7919Q0.7514 1.8238 0.7394 1.8464Q0.7273 1.8689 0.7066 1.8808Q0.6859 1.8926 0.6598 1.8926ZM0.6598 1.8569Q0.6751 1.8569 0.6865 1.8495Q0.6979 1.842 0.7042 1.8274Q0.7106 1.8129 0.7106 1.7919Q0.7106 1.7707 0.7042 1.7561Q0.6979 1.7416 0.6865 1.7341Q0.6751 1.7267 0.6598 1.7267Q0.6446 1.7267 0.6332 1.7342Q0.6217 1.7417 0.6154 1.7563Q0.6091 1.7708 0.6091 1.7919Q0.6091 1.8129 0.6154 1.8274Q0.6217 1.8419 0.6332 1.8494Q0.6446 1.8569 0.6598 1.8569Z M0.787 1.89V1.6936H0.8636Q0.886 1.6936 0.9017 1.7015Q0.9174 1.7094 0.9256 1.7238Q0.9339 1.7381 0.9339 1.7575Q0.9339 1.7769 0.9255 1.7909Q0.9171 1.805 0.9013 1.8124Q0.8854 1.8199 0.8627 1.8199H0.8108V1.7873H0.8562Q0.8686 1.7873 0.8765 1.7839Q0.8845 1.7806 0.8884 1.7739Q0.8924 1.7673 0.8924 1.7575Q0.8924 1.7475 0.8884 1.7407Q0.8845 1.7339 0.8765 1.7303Q0.8685 1.7268 0.8561 1.7268H0.8272V1.89ZM0.8963 1.89 0.8485 1.8006H0.8921L0.9409 1.89Z M0.9618 1.7269V1.6936H1.1223V1.7269H1.0623V1.89H1.022V1.7269Z M1.2363 1.8928Q1.2121 1.8928 1.1938 1.8837Q1.1755 1.8747 1.1654 1.8586Q1.1554 1.8425 1.1554 1.821V1.6936H1.1956V1.8178Q1.1956 1.8292 1.2006 1.8381Q1.2057 1.847 1.2149 1.8521Q1.224 1.8572 1.2363 1.8572Q1.2487 1.8572 1.2579 1.8521Q1.267 1.847 1.2721 1.8381Q1.2772 1.8292 1.2772 1.8178V1.6936H1.3175V1.821Q1.3175 1.8425 1.3074 1.8586Q1.2972 1.8747 1.279 1.8837Q1.2607 1.8928 1.2363 1.8928Z M1.3584 1.89V1.6936H1.4032L1.4653 1.793Q1.4701 1.8006 1.4749 1.8096Q1.4798 1.8185 1.4849 1.8295Q1.49 1.8404 1.495 1.8541H1.4909Q1.49 1.8432 1.4892 1.8308Q1.4885 1.8184 1.488 1.8071Q1.4875 1.7957 1.4875 1.7878V1.6936H1.5286V1.89H1.4836L1.4272 1.7998Q1.421 1.7897 1.4157 1.7801Q1.4105 1.7706 1.4047 1.759Q1.399 1.7475 1.3911 1.7314H1.3962Q1.397 1.7456 1.3978 1.7587Q1.3986 1.7717 1.3991 1.7824Q1.3995 1.793 1.3995 1.7997V1.89Z M1.6098 1.6936V1.89H1.5696V1.6936Z M1.6429 1.7269V1.6936H1.8033V1.7269H1.7433V1.89H1.703V1.7269Z M1.9002 1.89V1.8162L1.8274 1.6936H1.8745L1.9077 1.7547Q1.9129 1.764 1.9168 1.7731Q1.9208 1.7822 1.925 1.7948H1.9162Q1.9203 1.782 1.9241 1.7729Q1.9279 1.7638 1.9328 1.7547L1.9649 1.6936H2.0119L1.9403 1.8162V1.89Z"/></g>
</g>
</svg>
